G75*
G70*
%OFA0B0*%
%FSLAX24Y24*%
%IPPOS*%
%LPD*%
%AMOC8*
5,1,8,0,0,1.08239X$1,22.5*
%
%ADD10C,0.0500*%
%ADD11R,0.0276X0.0354*%
%ADD12R,0.0354X0.0276*%
%ADD13R,0.0364X0.0291*%
%ADD14OC8,0.0600*%
%ADD15R,0.0291X0.0364*%
%ADD16R,0.0217X0.0472*%
%ADD17R,0.0138X0.0630*%
%ADD18R,0.0472X0.0276*%
%ADD19R,0.0276X0.0472*%
%ADD20R,0.0945X0.0748*%
%ADD21R,0.0472X0.0472*%
%ADD22R,0.0591X0.0394*%
%ADD23R,0.1260X0.0472*%
%ADD24R,0.0394X0.0551*%
%ADD25R,0.0591X0.0591*%
%ADD26OC8,0.0660*%
%ADD27C,0.0160*%
%ADD28C,0.0310*%
%ADD29C,0.0240*%
%ADD30C,0.0100*%
%ADD31C,0.0120*%
%ADD32C,0.1487*%
%ADD33C,0.0275*%
%ADD34C,0.0290*%
D10*
X012960Y008990D03*
X019290Y008650D03*
X019290Y007710D03*
X019280Y009590D03*
X019210Y010560D03*
D11*
X021724Y010070D03*
X022236Y010070D03*
X022254Y009340D03*
X022766Y009340D03*
X014876Y005650D03*
X014364Y005650D03*
X024164Y017310D03*
X024676Y017310D03*
D12*
X019500Y017564D03*
X019500Y018076D03*
X018500Y018096D03*
X018500Y017584D03*
X012780Y007726D03*
X012780Y007214D03*
D13*
X012614Y009590D03*
X013086Y009590D03*
X013086Y011490D03*
X012614Y011490D03*
X014794Y013790D03*
X015266Y013790D03*
X012716Y015110D03*
X012244Y015110D03*
X014924Y018110D03*
X015396Y018110D03*
X019864Y005180D03*
X020336Y005180D03*
X022694Y005190D03*
X023166Y005190D03*
D14*
X025550Y010500D03*
X026550Y010500D03*
X026550Y011500D03*
X025550Y011500D03*
X025550Y012500D03*
X026550Y012500D03*
D15*
X023650Y005666D03*
X023650Y005194D03*
X022205Y005191D03*
X022205Y005663D03*
X011540Y016814D03*
X011540Y017286D03*
D16*
X011966Y016692D03*
X012340Y016692D03*
X012714Y016692D03*
X012714Y015668D03*
X011966Y015668D03*
D17*
X015134Y014798D03*
X015390Y014798D03*
X015646Y014798D03*
X015902Y014798D03*
X016158Y014798D03*
X016414Y014798D03*
X016670Y014798D03*
X016926Y014798D03*
X016926Y017102D03*
X016670Y017102D03*
X016414Y017102D03*
X016158Y017102D03*
X015902Y017102D03*
X015646Y017102D03*
X015390Y017102D03*
X015134Y017102D03*
D18*
X013729Y011487D03*
X013729Y011015D03*
X013729Y010542D03*
X013729Y010070D03*
X013729Y009598D03*
X013729Y009125D03*
X013729Y008653D03*
X013729Y008180D03*
X013729Y007708D03*
X013729Y007235D03*
X018336Y007235D03*
X018336Y007708D03*
X018336Y008180D03*
X018336Y008653D03*
X018336Y009125D03*
X018336Y009598D03*
X018336Y010070D03*
X018336Y010542D03*
X018336Y011015D03*
X018336Y011487D03*
D19*
X017686Y012216D03*
X017214Y012216D03*
X016741Y012216D03*
X016269Y012216D03*
X015796Y012216D03*
X015324Y012216D03*
X014851Y012216D03*
X014379Y012216D03*
X014379Y006507D03*
X014851Y006507D03*
X015324Y006507D03*
X015796Y006507D03*
X016269Y006507D03*
X016741Y006507D03*
X017214Y006507D03*
X017686Y006507D03*
D20*
X016879Y007944D03*
X015186Y007944D03*
X015186Y009361D03*
X016879Y009361D03*
X016879Y010779D03*
X015186Y010779D03*
D21*
X013729Y012216D03*
X018336Y012216D03*
X018336Y006507D03*
X013729Y006507D03*
D22*
X029610Y006900D03*
X029610Y010050D03*
D23*
X023839Y014213D03*
X023839Y015787D03*
X021161Y015787D03*
X021161Y014213D03*
D24*
X021126Y017567D03*
X021874Y017567D03*
X021500Y018433D03*
D25*
X023291Y018130D03*
X024669Y018130D03*
D26*
X024500Y020500D03*
X023500Y020500D03*
X022500Y020500D03*
X021500Y020500D03*
X020500Y020500D03*
X019500Y020500D03*
X018500Y020500D03*
X016900Y020500D03*
X015900Y020500D03*
X014900Y020500D03*
X013900Y020500D03*
X012900Y020500D03*
X011900Y020500D03*
X010900Y020500D03*
X009900Y020500D03*
X008900Y020500D03*
X007900Y020500D03*
X025500Y020500D03*
X025500Y001500D03*
X024500Y001500D03*
X023500Y001500D03*
X022500Y001500D03*
X021500Y001500D03*
X020500Y001500D03*
X018500Y001500D03*
X017500Y001500D03*
X016500Y001500D03*
X015500Y001500D03*
X014500Y001500D03*
X013500Y001500D03*
X012500Y001500D03*
X011500Y001500D03*
D27*
X000830Y000830D02*
X000830Y021170D01*
X005835Y021170D01*
X005700Y021035D01*
X005556Y020688D01*
X005556Y020312D01*
X005700Y019965D01*
X005965Y019700D01*
X006312Y019556D01*
X006688Y019556D01*
X007035Y019700D01*
X007300Y019965D01*
X007413Y020238D01*
X007680Y019970D01*
X008120Y019970D01*
X008400Y020250D01*
X008680Y019970D01*
X009120Y019970D01*
X009400Y020250D01*
X009680Y019970D01*
X010120Y019970D01*
X010400Y020250D01*
X010680Y019970D01*
X011120Y019970D01*
X011400Y020250D01*
X011680Y019970D01*
X012120Y019970D01*
X012400Y020250D01*
X012680Y019970D01*
X013120Y019970D01*
X013400Y020250D01*
X013680Y019970D01*
X014120Y019970D01*
X014400Y020250D01*
X014680Y019970D01*
X015120Y019970D01*
X015400Y020250D01*
X015680Y019970D01*
X016120Y019970D01*
X016400Y020250D01*
X016680Y019970D01*
X017120Y019970D01*
X017430Y020280D01*
X017430Y020720D01*
X017120Y021030D01*
X016680Y021030D01*
X016400Y020750D01*
X016120Y021030D01*
X015680Y021030D01*
X015400Y020750D01*
X015120Y021030D01*
X014680Y021030D01*
X014400Y020750D01*
X014120Y021030D01*
X013680Y021030D01*
X013400Y020750D01*
X013120Y021030D01*
X012680Y021030D01*
X012400Y020750D01*
X012120Y021030D01*
X011680Y021030D01*
X011400Y020750D01*
X011120Y021030D01*
X010680Y021030D01*
X010400Y020750D01*
X010120Y021030D01*
X009680Y021030D01*
X009400Y020750D01*
X009120Y021030D01*
X008680Y021030D01*
X008400Y020750D01*
X008120Y021030D01*
X007680Y021030D01*
X007413Y020762D01*
X007300Y021035D01*
X007165Y021170D01*
X025750Y021170D01*
X026170Y020750D01*
X026170Y018000D01*
X030170Y014000D01*
X030170Y011280D01*
X027037Y011280D01*
X027050Y011293D01*
X027050Y011707D01*
X026757Y012000D01*
X026418Y012000D01*
X026398Y012020D01*
X026530Y012020D01*
X026530Y012480D01*
X026070Y012480D01*
X026070Y012301D01*
X026128Y012243D01*
X026112Y012250D01*
X026007Y012250D01*
X026050Y012293D01*
X026050Y012707D01*
X025757Y013000D01*
X025343Y013000D01*
X025103Y012760D01*
X021118Y012760D01*
X017527Y016350D01*
X017432Y016390D01*
X016928Y016390D01*
X016731Y016587D01*
X017077Y016587D01*
X017195Y016704D01*
X017195Y016745D01*
X017241Y016745D01*
X017371Y016799D01*
X017471Y016899D01*
X017525Y017029D01*
X017525Y017171D01*
X017471Y017301D01*
X018185Y017301D01*
X018220Y017266D02*
X018220Y015844D01*
X018263Y015741D01*
X019953Y014051D01*
X020031Y013973D01*
X020134Y013930D01*
X020331Y013930D01*
X020331Y013894D01*
X020449Y013776D01*
X021874Y013776D01*
X021991Y013894D01*
X021991Y014532D01*
X021874Y014649D01*
X020449Y014649D01*
X020331Y014532D01*
X020331Y014490D01*
X020306Y014490D01*
X018780Y016016D01*
X018780Y017266D01*
X018877Y017363D01*
X018877Y017805D01*
X018842Y017840D01*
X018877Y017875D01*
X018877Y018317D01*
X018792Y018402D01*
X018845Y018529D01*
X018845Y018671D01*
X018791Y018801D01*
X018691Y018901D01*
X018561Y018955D01*
X018419Y018955D01*
X018289Y018901D01*
X018189Y018801D01*
X018135Y018671D01*
X018135Y018529D01*
X018189Y018399D01*
X018197Y018391D01*
X018123Y018317D01*
X018123Y017875D01*
X018158Y017840D01*
X018123Y017805D01*
X018123Y017363D01*
X018220Y017266D01*
X018220Y017143D02*
X017525Y017143D01*
X017506Y016984D02*
X018220Y016984D01*
X018220Y016826D02*
X017398Y016826D01*
X017158Y016667D02*
X018220Y016667D01*
X018220Y016509D02*
X016809Y016509D01*
X017528Y016350D02*
X018220Y016350D01*
X018220Y016192D02*
X017686Y016192D01*
X017845Y016033D02*
X018220Y016033D01*
X018220Y015875D02*
X018003Y015875D01*
X018162Y015716D02*
X018288Y015716D01*
X018320Y015558D02*
X018446Y015558D01*
X018479Y015399D02*
X018605Y015399D01*
X018637Y015241D02*
X018763Y015241D01*
X018796Y015082D02*
X018922Y015082D01*
X018954Y014924D02*
X019080Y014924D01*
X019113Y014765D02*
X019239Y014765D01*
X019271Y014607D02*
X019397Y014607D01*
X019430Y014448D02*
X019556Y014448D01*
X019588Y014290D02*
X019714Y014290D01*
X019747Y014131D02*
X019873Y014131D01*
X019905Y013973D02*
X020032Y013973D01*
X020064Y013814D02*
X020411Y013814D01*
X020222Y013656D02*
X026073Y013656D01*
X025965Y013700D02*
X026312Y013556D01*
X026688Y013556D01*
X027035Y013700D01*
X027300Y013965D01*
X027444Y014312D01*
X027444Y014688D01*
X027300Y015035D01*
X027035Y015300D01*
X026688Y015444D01*
X026312Y015444D01*
X025965Y015300D01*
X025700Y015035D01*
X025556Y014688D01*
X025556Y014312D01*
X025700Y013965D01*
X025965Y013700D01*
X025851Y013814D02*
X024589Y013814D01*
X024551Y013776D02*
X024669Y013894D01*
X024669Y014532D01*
X024551Y014649D01*
X023126Y014649D01*
X023009Y014532D01*
X023009Y013894D01*
X023126Y013776D01*
X024551Y013776D01*
X024669Y013973D02*
X025697Y013973D01*
X025631Y014131D02*
X024669Y014131D01*
X024669Y014290D02*
X025566Y014290D01*
X025556Y014448D02*
X024669Y014448D01*
X024594Y014607D02*
X025556Y014607D01*
X025588Y014765D02*
X020031Y014765D01*
X020189Y014607D02*
X020406Y014607D01*
X020190Y014210D02*
X021159Y014210D01*
X021161Y014213D01*
X021991Y014290D02*
X023009Y014290D01*
X023009Y014448D02*
X021991Y014448D01*
X021916Y014607D02*
X023084Y014607D01*
X023009Y014131D02*
X021991Y014131D01*
X021991Y013973D02*
X023009Y013973D01*
X023088Y013814D02*
X021912Y013814D01*
X021015Y012863D02*
X025206Y012863D01*
X025894Y012863D02*
X026234Y012863D01*
X026351Y012980D02*
X026070Y012699D01*
X026070Y012520D01*
X026530Y012520D01*
X026530Y012980D01*
X026351Y012980D01*
X026530Y012863D02*
X026570Y012863D01*
X026570Y012980D02*
X026570Y012520D01*
X026530Y012520D01*
X026530Y012480D01*
X026570Y012480D01*
X026570Y012520D01*
X027030Y012520D01*
X027030Y012699D01*
X026749Y012980D01*
X026570Y012980D01*
X026866Y012863D02*
X030170Y012863D01*
X030170Y012705D02*
X027024Y012705D01*
X027030Y012546D02*
X030170Y012546D01*
X030170Y012388D02*
X027030Y012388D01*
X027030Y012301D02*
X027030Y012480D01*
X026570Y012480D01*
X026570Y012020D01*
X026749Y012020D01*
X027030Y012301D01*
X026958Y012229D02*
X030170Y012229D01*
X030170Y012071D02*
X026799Y012071D01*
X026845Y011912D02*
X030170Y011912D01*
X030170Y011754D02*
X027004Y011754D01*
X027050Y011595D02*
X030170Y011595D01*
X030170Y011437D02*
X027050Y011437D01*
X026749Y010980D02*
X026570Y010980D01*
X026570Y010520D01*
X026530Y010520D01*
X026530Y010980D01*
X026351Y010980D01*
X026070Y010699D01*
X026070Y010520D01*
X026530Y010520D01*
X026530Y010480D01*
X026070Y010480D01*
X026070Y010301D01*
X026351Y010020D01*
X026530Y010020D01*
X026530Y010480D01*
X026570Y010480D01*
X026570Y010520D01*
X027030Y010520D01*
X027030Y010699D01*
X026749Y010980D01*
X026768Y010961D02*
X030170Y010961D01*
X030170Y011000D02*
X030170Y010750D01*
X027500Y010750D01*
X027500Y006250D01*
X029325Y006250D01*
X029325Y005921D01*
X029320Y005852D01*
X029277Y005720D01*
X029196Y005608D01*
X029084Y005527D01*
X028952Y005484D01*
X028883Y005479D01*
X023976Y005479D01*
X023976Y005666D01*
X023650Y005666D01*
X023650Y005666D01*
X023324Y005666D01*
X023324Y005476D01*
X022692Y005476D01*
X022530Y005476D01*
X022530Y005663D01*
X022205Y005663D01*
X022205Y005663D01*
X022530Y005663D01*
X022530Y005869D01*
X022518Y005915D01*
X022494Y005956D01*
X022461Y005989D01*
X022420Y006013D01*
X022374Y006025D01*
X022205Y006025D01*
X022205Y005663D01*
X022205Y005663D01*
X021879Y005663D01*
X021879Y005465D01*
X020577Y005465D01*
X020576Y005466D01*
X019624Y005466D01*
X019623Y005465D01*
X017798Y005465D01*
X017739Y005472D01*
X017630Y005519D01*
X017548Y005604D01*
X017504Y005714D01*
X017499Y005773D01*
X017500Y005830D01*
X017491Y005851D01*
X017491Y006100D01*
X017525Y006091D01*
X017686Y006091D01*
X017686Y006507D01*
X017686Y006507D01*
X017686Y006923D01*
X017525Y006923D01*
X017479Y006911D01*
X017438Y006887D01*
X017422Y006871D01*
X017409Y006883D01*
X017018Y006883D01*
X017006Y006871D01*
X016989Y006887D01*
X016948Y006911D01*
X016903Y006923D01*
X016741Y006923D01*
X016580Y006923D01*
X016534Y006911D01*
X016505Y006894D01*
X016476Y006911D01*
X016430Y006923D01*
X016269Y006923D01*
X016269Y006507D01*
X016741Y006507D01*
X016423Y006507D01*
X016269Y006507D01*
X016269Y006507D01*
X016269Y006091D01*
X016430Y006091D01*
X016476Y006103D01*
X016505Y006120D01*
X016534Y006103D01*
X016580Y006091D01*
X016741Y006091D01*
X016741Y006507D01*
X016741Y006507D01*
X016741Y006507D01*
X016741Y006923D01*
X016741Y006507D01*
X016741Y006507D01*
X016741Y006091D01*
X016903Y006091D01*
X016936Y006100D01*
X016936Y005854D01*
X016930Y005838D01*
X016929Y005782D01*
X016926Y005608D01*
X017055Y005285D01*
X017297Y005035D01*
X017616Y004898D01*
X017735Y004896D01*
X017737Y004895D01*
X017792Y004895D01*
X017846Y004894D01*
X017848Y004895D01*
X019623Y004895D01*
X019624Y004894D01*
X020576Y004894D01*
X020577Y004895D01*
X021975Y004895D01*
X022001Y004869D01*
X022408Y004869D01*
X022445Y004906D01*
X022452Y004906D01*
X022454Y004904D01*
X023406Y004904D01*
X023407Y004905D01*
X023413Y004905D01*
X023446Y004872D01*
X023854Y004872D01*
X023891Y004909D01*
X029043Y004909D01*
X029348Y005008D01*
X029348Y005008D01*
X029608Y005196D01*
X029608Y005196D01*
X029608Y005196D01*
X029796Y005456D01*
X029895Y005761D01*
X029895Y006250D01*
X030170Y006250D01*
X030170Y003250D01*
X011000Y003250D01*
X011000Y016000D01*
X011755Y016000D01*
X011718Y015962D01*
X011718Y015374D01*
X011800Y015292D01*
X011885Y015292D01*
X011882Y015279D01*
X011882Y015110D01*
X011882Y014941D01*
X011894Y014895D01*
X011918Y014854D01*
X011951Y014820D01*
X011992Y014797D01*
X012038Y014784D01*
X012244Y014784D01*
X012450Y014784D01*
X012464Y014788D01*
X012464Y013402D01*
X012503Y013306D01*
X012826Y012983D01*
X012826Y011814D01*
X012820Y011816D01*
X012614Y011816D01*
X012614Y011490D01*
X012614Y011164D01*
X012820Y011164D01*
X012826Y011166D01*
X012826Y009914D01*
X012820Y009916D01*
X012614Y009916D01*
X012614Y009590D01*
X012764Y009590D01*
X012764Y009590D01*
X012614Y009590D01*
X012614Y009590D01*
X012614Y009264D01*
X012683Y009264D01*
X012629Y009211D01*
X012570Y009068D01*
X012570Y008912D01*
X012629Y008769D01*
X012739Y008659D01*
X012882Y008600D01*
X013038Y008600D01*
X013181Y008659D01*
X013291Y008769D01*
X013320Y008840D01*
X013313Y008814D01*
X013313Y008653D01*
X013729Y008653D01*
X013729Y008653D01*
X013313Y008653D01*
X013313Y008491D01*
X013325Y008445D01*
X013349Y008404D01*
X013353Y008400D01*
X012757Y008400D01*
X012727Y008430D01*
X012618Y008475D01*
X012501Y008475D01*
X012393Y008430D01*
X012310Y008347D01*
X012265Y008239D01*
X012265Y008122D01*
X012310Y008013D01*
X012393Y007930D01*
X012463Y007901D01*
X012463Y007530D01*
X012523Y007470D01*
X012463Y007410D01*
X012463Y007018D01*
X012545Y006936D01*
X013015Y006936D01*
X013094Y007015D01*
X013377Y007015D01*
X013435Y006958D01*
X014024Y006958D01*
X014106Y007040D01*
X014106Y007431D01*
X014065Y007472D01*
X014106Y007512D01*
X014106Y007904D01*
X014065Y007944D01*
X014106Y007984D01*
X014106Y008376D01*
X014093Y008388D01*
X014110Y008404D01*
X014133Y008445D01*
X014146Y008491D01*
X014146Y008653D01*
X014146Y008814D01*
X014133Y008860D01*
X014110Y008901D01*
X014093Y008917D01*
X014106Y008929D01*
X014106Y009321D01*
X014065Y009361D01*
X014106Y009402D01*
X014106Y009793D01*
X014093Y009805D01*
X014110Y009822D01*
X014133Y009863D01*
X014146Y009909D01*
X014146Y010070D01*
X014146Y010231D01*
X014133Y010277D01*
X014117Y010306D01*
X014133Y010335D01*
X014146Y010381D01*
X014146Y010542D01*
X013729Y010542D01*
X013729Y010388D01*
X013729Y010070D01*
X013729Y010070D01*
X013729Y010542D01*
X013729Y010542D01*
X013729Y010542D01*
X013729Y010860D01*
X013729Y011015D01*
X013729Y011015D01*
X013729Y010542D01*
X013729Y010542D01*
X014146Y010542D01*
X014146Y010704D01*
X014133Y010750D01*
X014117Y010779D01*
X014133Y010808D01*
X014146Y010853D01*
X014146Y011015D01*
X014146Y011176D01*
X014133Y011222D01*
X014110Y011263D01*
X014093Y011279D01*
X014106Y011292D01*
X014106Y011683D01*
X014024Y011765D01*
X013435Y011765D01*
X013420Y011750D01*
X013352Y011750D01*
X013346Y011756D01*
X013346Y011874D01*
X013349Y011869D01*
X013383Y011835D01*
X013424Y011812D01*
X013469Y011799D01*
X013691Y011799D01*
X013691Y012178D01*
X013767Y012178D01*
X013767Y011799D01*
X013989Y011799D01*
X014035Y011812D01*
X014076Y011835D01*
X014103Y011863D01*
X014131Y011835D01*
X014172Y011812D01*
X014217Y011799D01*
X014379Y011799D01*
X014540Y011799D01*
X014586Y011812D01*
X014627Y011835D01*
X014643Y011852D01*
X014656Y011839D01*
X015047Y011839D01*
X015059Y011852D01*
X015076Y011835D01*
X015117Y011812D01*
X015162Y011799D01*
X015324Y011799D01*
X015485Y011799D01*
X015531Y011812D01*
X015572Y011835D01*
X015588Y011852D01*
X015601Y011839D01*
X015992Y011839D01*
X016033Y011880D01*
X016073Y011839D01*
X016465Y011839D01*
X016505Y011880D01*
X016545Y011839D01*
X016937Y011839D01*
X016977Y011880D01*
X017018Y011839D01*
X017409Y011839D01*
X017422Y011852D01*
X017438Y011835D01*
X017479Y011812D01*
X017525Y011799D01*
X017686Y011799D01*
X017686Y012216D01*
X017686Y012632D01*
X017525Y012632D01*
X017479Y012620D01*
X017438Y012596D01*
X017422Y012580D01*
X017420Y012581D01*
X017420Y013113D01*
X017303Y013230D01*
X016870Y013663D01*
X016870Y014343D01*
X017053Y014343D01*
X017135Y014425D01*
X017135Y015069D01*
X021000Y011000D01*
X030170Y011000D01*
X030170Y010803D02*
X026926Y010803D01*
X027030Y010644D02*
X027500Y010644D01*
X027500Y010486D02*
X026570Y010486D01*
X026570Y010480D02*
X027030Y010480D01*
X027030Y010301D01*
X026749Y010020D01*
X026570Y010020D01*
X026570Y010480D01*
X026530Y010486D02*
X025990Y010486D01*
X025990Y010644D02*
X026070Y010644D01*
X025990Y010682D02*
X025732Y010940D01*
X025368Y010940D01*
X025110Y010682D01*
X025110Y010318D01*
X025368Y010060D01*
X025732Y010060D01*
X025990Y010318D01*
X025990Y010682D01*
X025870Y010803D02*
X026174Y010803D01*
X026332Y010961D02*
X018752Y010961D01*
X018752Y011015D02*
X018336Y011015D01*
X018752Y011015D01*
X018752Y011176D01*
X018740Y011222D01*
X018723Y011251D01*
X018740Y011280D01*
X018752Y011326D01*
X018752Y011487D01*
X018336Y011487D01*
X018336Y011487D01*
X018336Y011170D01*
X018336Y011015D01*
X018336Y011015D01*
X018336Y011015D01*
X018336Y011487D01*
X018336Y011487D01*
X018752Y011487D01*
X018752Y011649D01*
X018740Y011695D01*
X018716Y011736D01*
X018682Y011769D01*
X018641Y011793D01*
X018606Y011802D01*
X018641Y011812D01*
X018682Y011835D01*
X018716Y011869D01*
X018740Y011910D01*
X018752Y011956D01*
X018752Y012178D01*
X018374Y012178D01*
X018374Y012254D01*
X018298Y012254D01*
X018298Y012632D01*
X018076Y012632D01*
X018030Y012620D01*
X017989Y012596D01*
X017962Y012569D01*
X017934Y012596D01*
X017893Y012620D01*
X017848Y012632D01*
X017686Y012632D01*
X017686Y012216D01*
X017686Y012216D01*
X018004Y012216D01*
X018004Y012254D01*
X018298Y012254D01*
X018298Y012178D01*
X018004Y012178D01*
X018004Y012216D01*
X017686Y012216D01*
X017686Y012216D01*
X017686Y012216D01*
X017686Y011799D01*
X017848Y011799D01*
X017893Y011812D01*
X017934Y011835D01*
X017962Y011863D01*
X017989Y011835D01*
X018030Y011812D01*
X018065Y011802D01*
X018030Y011793D01*
X017989Y011769D01*
X017955Y011736D01*
X017932Y011695D01*
X017919Y011649D01*
X017919Y011487D01*
X017919Y011326D01*
X017932Y011280D01*
X017948Y011251D01*
X017932Y011222D01*
X017919Y011176D01*
X017919Y011015D01*
X018336Y011015D01*
X018336Y011015D01*
X017919Y011015D01*
X017919Y010853D01*
X017932Y010808D01*
X017955Y010767D01*
X017972Y010750D01*
X017959Y010738D01*
X017959Y010347D01*
X018000Y010306D01*
X017959Y010266D01*
X017959Y009874D01*
X018000Y009834D01*
X017959Y009793D01*
X017959Y009402D01*
X018000Y009361D01*
X017959Y009321D01*
X017959Y008929D01*
X018000Y008889D01*
X017959Y008848D01*
X017959Y008457D01*
X018000Y008416D01*
X017959Y008376D01*
X017959Y007984D01*
X018000Y007944D01*
X017959Y007904D01*
X017959Y007512D01*
X017972Y007500D01*
X017955Y007484D01*
X017932Y007443D01*
X017919Y007397D01*
X017919Y007235D01*
X017919Y007074D01*
X017932Y007028D01*
X017955Y006987D01*
X017989Y006954D01*
X018030Y006930D01*
X018065Y006920D01*
X018030Y006911D01*
X017989Y006887D01*
X017962Y006860D01*
X017934Y006887D01*
X017893Y006911D01*
X017848Y006923D01*
X017686Y006923D01*
X017686Y006507D01*
X017686Y006507D01*
X017686Y006091D01*
X017848Y006091D01*
X017893Y006103D01*
X017934Y006127D01*
X017962Y006154D01*
X017989Y006127D01*
X018030Y006103D01*
X018076Y006091D01*
X018298Y006091D01*
X018298Y006469D01*
X018374Y006469D01*
X018374Y006545D01*
X018752Y006545D01*
X018752Y006767D01*
X018740Y006813D01*
X018716Y006854D01*
X018682Y006887D01*
X018641Y006911D01*
X018606Y006920D01*
X018641Y006930D01*
X018682Y006954D01*
X018716Y006987D01*
X018740Y007028D01*
X018752Y007074D01*
X018752Y007235D01*
X018336Y007235D01*
X018336Y007235D01*
X018336Y006918D01*
X018374Y006918D01*
X018374Y006545D01*
X018298Y006545D01*
X018298Y006918D01*
X018336Y006918D01*
X018336Y007235D01*
X018336Y007235D01*
X018752Y007235D01*
X018752Y007397D01*
X018740Y007443D01*
X018716Y007484D01*
X018712Y007488D01*
X018961Y007488D01*
X019069Y007379D01*
X019212Y007320D01*
X019368Y007320D01*
X019511Y007379D01*
X019621Y007489D01*
X019680Y007632D01*
X019680Y007788D01*
X019621Y007931D01*
X019511Y008041D01*
X019368Y008100D01*
X019212Y008100D01*
X019069Y008041D01*
X018959Y007931D01*
X018958Y007928D01*
X018688Y007928D01*
X018671Y007944D01*
X018712Y007984D01*
X018712Y008376D01*
X018671Y008416D01*
X018688Y008433D01*
X018958Y008433D01*
X018959Y008429D01*
X019069Y008319D01*
X019212Y008260D01*
X019368Y008260D01*
X019511Y008319D01*
X019621Y008429D01*
X019680Y008572D01*
X019680Y008728D01*
X019621Y008871D01*
X019586Y008905D01*
X022130Y008905D01*
X022248Y009023D01*
X022450Y009023D01*
X022482Y009055D01*
X022484Y009052D01*
X022518Y009019D01*
X022559Y008995D01*
X022604Y008983D01*
X022766Y008983D01*
X022927Y008983D01*
X022973Y008995D01*
X023014Y009019D01*
X023048Y009052D01*
X023071Y009093D01*
X023084Y009139D01*
X023084Y009340D01*
X023084Y009541D01*
X023071Y009587D01*
X023048Y009628D01*
X023014Y009661D01*
X022973Y009685D01*
X022927Y009697D01*
X022766Y009697D01*
X022766Y009340D01*
X023084Y009340D01*
X022766Y009340D01*
X022766Y009340D01*
X022766Y009340D01*
X022766Y008983D01*
X022766Y009340D01*
X022766Y009340D01*
X023140Y009340D01*
X023084Y009376D02*
X027500Y009376D01*
X027500Y009218D02*
X023084Y009218D01*
X023052Y009059D02*
X027500Y009059D01*
X027500Y008901D02*
X019591Y008901D01*
X019674Y008742D02*
X027500Y008742D01*
X027500Y008584D02*
X019680Y008584D01*
X019617Y008425D02*
X027500Y008425D01*
X027500Y008267D02*
X019383Y008267D01*
X019197Y008267D02*
X018712Y008267D01*
X018712Y008108D02*
X027500Y008108D01*
X027500Y007950D02*
X019602Y007950D01*
X019679Y007791D02*
X027500Y007791D01*
X027500Y007633D02*
X019680Y007633D01*
X019606Y007474D02*
X027500Y007474D01*
X027500Y007316D02*
X018752Y007316D01*
X018752Y007157D02*
X027500Y007157D01*
X027500Y006999D02*
X018723Y006999D01*
X018724Y006840D02*
X027500Y006840D01*
X027500Y006682D02*
X018752Y006682D01*
X018752Y006469D02*
X018374Y006469D01*
X018374Y006091D01*
X018596Y006091D01*
X018641Y006103D01*
X018682Y006127D01*
X018716Y006160D01*
X018740Y006201D01*
X018752Y006247D01*
X018752Y006469D01*
X018752Y006365D02*
X027500Y006365D01*
X027500Y006523D02*
X018374Y006523D01*
X018340Y006510D02*
X018336Y006507D01*
X018298Y006523D02*
X018004Y006523D01*
X018004Y006507D02*
X018004Y006545D01*
X018298Y006545D01*
X018298Y006469D01*
X018004Y006469D01*
X018004Y006507D01*
X017686Y006507D01*
X017686Y006507D01*
X018004Y006507D01*
X017686Y006523D02*
X017686Y006523D01*
X017686Y006365D02*
X017686Y006365D01*
X017686Y006206D02*
X017686Y006206D01*
X017491Y006048D02*
X029325Y006048D01*
X029325Y006206D02*
X018741Y006206D01*
X018374Y006206D02*
X018298Y006206D01*
X018298Y006365D02*
X018374Y006365D01*
X018374Y006682D02*
X018298Y006682D01*
X018298Y006840D02*
X018374Y006840D01*
X018336Y006999D02*
X018336Y006999D01*
X018336Y007157D02*
X018336Y007157D01*
X018336Y007235D02*
X017919Y007235D01*
X018336Y007235D01*
X018336Y007235D01*
X017919Y007157D02*
X014106Y007157D01*
X014106Y007316D02*
X017919Y007316D01*
X017950Y007474D02*
X017504Y007474D01*
X017495Y007459D02*
X017519Y007501D01*
X017531Y007546D01*
X017531Y007864D01*
X016959Y007864D01*
X016959Y008024D01*
X017531Y008024D01*
X017531Y008342D01*
X017519Y008388D01*
X017495Y008429D01*
X017462Y008462D01*
X017421Y008486D01*
X017375Y008498D01*
X016959Y008498D01*
X016959Y008024D01*
X016799Y008024D01*
X016799Y008498D01*
X016383Y008498D01*
X016337Y008486D01*
X016296Y008462D01*
X016262Y008429D01*
X016239Y008388D01*
X016227Y008342D01*
X016227Y008024D01*
X016799Y008024D01*
X016799Y007864D01*
X016959Y007864D01*
X016959Y007390D01*
X017375Y007390D01*
X017421Y007402D01*
X017462Y007426D01*
X017495Y007459D01*
X017531Y007633D02*
X017959Y007633D01*
X017959Y007791D02*
X017531Y007791D01*
X017531Y008108D02*
X017959Y008108D01*
X017959Y008267D02*
X017531Y008267D01*
X017497Y008425D02*
X017991Y008425D01*
X017959Y008584D02*
X014146Y008584D01*
X014146Y008653D02*
X013729Y008653D01*
X014146Y008653D01*
X014146Y008742D02*
X017959Y008742D01*
X017988Y008901D02*
X017509Y008901D01*
X017519Y008918D02*
X017531Y008964D01*
X017531Y009281D01*
X016959Y009281D01*
X016959Y008807D01*
X017375Y008807D01*
X017421Y008820D01*
X017462Y008843D01*
X017495Y008877D01*
X017519Y008918D01*
X017531Y009059D02*
X017959Y009059D01*
X017959Y009218D02*
X017531Y009218D01*
X017531Y009441D02*
X017531Y009759D01*
X017519Y009805D01*
X017495Y009846D01*
X017462Y009879D01*
X017421Y009903D01*
X017375Y009915D01*
X016959Y009915D01*
X016959Y009441D01*
X017531Y009441D01*
X017531Y009535D02*
X017959Y009535D01*
X017959Y009693D02*
X017531Y009693D01*
X017490Y009852D02*
X017982Y009852D01*
X017959Y010010D02*
X014146Y010010D01*
X014146Y010070D02*
X013729Y010070D01*
X014146Y010070D01*
X014146Y010169D02*
X017959Y010169D01*
X017979Y010327D02*
X017514Y010327D01*
X017519Y010335D02*
X017531Y010381D01*
X017531Y010699D01*
X016959Y010699D01*
X016959Y010859D01*
X016799Y010859D01*
X016799Y011333D01*
X016383Y011333D01*
X016337Y011320D01*
X016296Y011297D01*
X016262Y011263D01*
X016239Y011222D01*
X016227Y011176D01*
X016227Y010859D01*
X016799Y010859D01*
X016799Y010699D01*
X016227Y010699D01*
X016227Y010381D01*
X016239Y010335D01*
X016262Y010294D01*
X016296Y010261D01*
X016337Y010237D01*
X016383Y010225D01*
X016799Y010225D01*
X016799Y010699D01*
X016959Y010699D01*
X016959Y010225D01*
X017375Y010225D01*
X017421Y010237D01*
X017462Y010261D01*
X017495Y010294D01*
X017519Y010335D01*
X017531Y010486D02*
X017959Y010486D01*
X017959Y010644D02*
X017531Y010644D01*
X017531Y010859D02*
X017531Y011176D01*
X017519Y011222D01*
X017495Y011263D01*
X017462Y011297D01*
X017421Y011320D01*
X017375Y011333D01*
X016959Y011333D01*
X016959Y010859D01*
X017531Y010859D01*
X017531Y010961D02*
X017919Y010961D01*
X017919Y011120D02*
X017531Y011120D01*
X017481Y011278D02*
X017933Y011278D01*
X017919Y011437D02*
X014106Y011437D01*
X014106Y011595D02*
X017919Y011595D01*
X017919Y011487D02*
X018336Y011487D01*
X018336Y011487D01*
X018336Y011805D01*
X018374Y011805D01*
X018374Y012178D01*
X018298Y012178D01*
X018298Y011805D01*
X018336Y011805D01*
X018336Y011487D01*
X017919Y011487D01*
X017973Y011754D02*
X014035Y011754D01*
X013767Y011912D02*
X013691Y011912D01*
X013691Y012071D02*
X013767Y012071D01*
X013767Y012178D02*
X013767Y012254D01*
X013691Y012254D01*
X013691Y012632D01*
X013469Y012632D01*
X013424Y012620D01*
X013383Y012596D01*
X013349Y012562D01*
X013346Y012557D01*
X013346Y013143D01*
X013307Y013238D01*
X013233Y013311D01*
X012984Y013561D01*
X012984Y014040D01*
X014464Y014040D01*
X014444Y014005D01*
X014432Y013959D01*
X014432Y013790D01*
X014432Y013621D01*
X014444Y013575D01*
X014468Y013534D01*
X014501Y013500D01*
X014542Y013477D01*
X014588Y013464D01*
X014794Y013464D01*
X015000Y013464D01*
X015045Y013477D01*
X015086Y013500D01*
X015090Y013504D01*
X015441Y013504D01*
X015217Y013280D01*
X014957Y013280D01*
X014767Y013090D01*
X014650Y012973D01*
X014650Y012586D01*
X014643Y012580D01*
X014627Y012596D01*
X014586Y012620D01*
X014540Y012632D01*
X014379Y012632D01*
X014379Y012216D01*
X014379Y012216D01*
X014379Y012632D01*
X014217Y012632D01*
X014172Y012620D01*
X014131Y012596D01*
X014103Y012569D01*
X014076Y012596D01*
X014035Y012620D01*
X013989Y012632D01*
X013767Y012632D01*
X013767Y012254D01*
X014061Y012254D01*
X014061Y012216D01*
X014379Y012216D01*
X014379Y012216D01*
X014061Y012216D01*
X014061Y012178D01*
X013767Y012178D01*
X013767Y012229D02*
X014061Y012229D01*
X014379Y012229D02*
X014379Y012229D01*
X014379Y012216D02*
X014379Y011799D01*
X014379Y012216D01*
X014379Y012216D01*
X014379Y012071D02*
X014379Y012071D01*
X014379Y011912D02*
X014379Y011912D01*
X014379Y012388D02*
X014379Y012388D01*
X014379Y012546D02*
X014379Y012546D01*
X014650Y012705D02*
X013346Y012705D01*
X013346Y012863D02*
X014650Y012863D01*
X014699Y013022D02*
X013346Y013022D01*
X013331Y013180D02*
X014857Y013180D01*
X015123Y012880D02*
X015050Y012807D01*
X015050Y012589D01*
X015059Y012580D01*
X015076Y012596D01*
X015117Y012620D01*
X015162Y012632D01*
X015324Y012632D01*
X015324Y012216D01*
X015324Y012216D01*
X015519Y012216D01*
X015519Y012216D01*
X015324Y012216D01*
X015324Y012216D01*
X015324Y012632D01*
X015485Y012632D01*
X015531Y012620D01*
X015572Y012596D01*
X015588Y012580D01*
X015590Y012581D01*
X015590Y012933D01*
X015702Y013045D01*
X015702Y013199D01*
X015500Y012997D01*
X015383Y012880D01*
X015123Y012880D01*
X015106Y012863D02*
X015590Y012863D01*
X015590Y012705D02*
X015050Y012705D01*
X015324Y012546D02*
X015324Y012546D01*
X015324Y012388D02*
X015324Y012388D01*
X015324Y012229D02*
X015324Y012229D01*
X015324Y012216D02*
X015330Y012216D01*
X015324Y012216D02*
X015324Y011799D01*
X015324Y012216D01*
X015324Y012216D01*
X015324Y012071D02*
X015324Y012071D01*
X015324Y011912D02*
X015324Y011912D01*
X015266Y011333D02*
X015266Y010859D01*
X015106Y010859D01*
X015106Y011333D01*
X014690Y011333D01*
X014644Y011320D01*
X014603Y011297D01*
X014570Y011263D01*
X014546Y011222D01*
X014534Y011176D01*
X014534Y010859D01*
X015106Y010859D01*
X015106Y010699D01*
X014534Y010699D01*
X014534Y010381D01*
X014546Y010335D01*
X014570Y010294D01*
X014603Y010261D01*
X014644Y010237D01*
X014690Y010225D01*
X015106Y010225D01*
X015106Y010699D01*
X015266Y010699D01*
X015266Y010859D01*
X015839Y010859D01*
X015839Y011176D01*
X015826Y011222D01*
X015803Y011263D01*
X015769Y011297D01*
X015728Y011320D01*
X015682Y011333D01*
X015266Y011333D01*
X015266Y011278D02*
X015106Y011278D01*
X015106Y011120D02*
X015266Y011120D01*
X015266Y010961D02*
X015106Y010961D01*
X015106Y010803D02*
X014130Y010803D01*
X014146Y010961D02*
X014534Y010961D01*
X014534Y011120D02*
X014146Y011120D01*
X014146Y011015D02*
X013729Y011015D01*
X013729Y011015D01*
X014146Y011015D01*
X014146Y010644D02*
X014534Y010644D01*
X014534Y010486D02*
X014146Y010486D01*
X014129Y010327D02*
X014551Y010327D01*
X014644Y009903D02*
X014603Y009879D01*
X014570Y009846D01*
X014546Y009805D01*
X014534Y009759D01*
X014534Y009441D01*
X015106Y009441D01*
X015106Y009281D01*
X015266Y009281D01*
X015266Y008807D01*
X015682Y008807D01*
X015728Y008820D01*
X015769Y008843D01*
X015803Y008877D01*
X015826Y008918D01*
X015839Y008964D01*
X015839Y009281D01*
X015266Y009281D01*
X015266Y009441D01*
X015839Y009441D01*
X015839Y009759D01*
X015826Y009805D01*
X015803Y009846D01*
X015769Y009879D01*
X015728Y009903D01*
X015682Y009915D01*
X015266Y009915D01*
X015266Y009441D01*
X015106Y009441D01*
X015106Y009915D01*
X014690Y009915D01*
X014644Y009903D01*
X014575Y009852D02*
X014127Y009852D01*
X014106Y009693D02*
X014534Y009693D01*
X014534Y009535D02*
X014106Y009535D01*
X014080Y009376D02*
X015106Y009376D01*
X015106Y009281D02*
X014534Y009281D01*
X014534Y008964D01*
X014546Y008918D01*
X014570Y008877D01*
X014603Y008843D01*
X014644Y008820D01*
X014690Y008807D01*
X015106Y008807D01*
X015106Y009281D01*
X015106Y009218D02*
X015266Y009218D01*
X015266Y009376D02*
X016799Y009376D01*
X016799Y009441D02*
X016799Y009281D01*
X016959Y009281D01*
X016959Y009441D01*
X016799Y009441D01*
X016227Y009441D01*
X016227Y009759D01*
X016239Y009805D01*
X016262Y009846D01*
X016296Y009879D01*
X016337Y009903D01*
X016383Y009915D01*
X016799Y009915D01*
X016799Y009441D01*
X016799Y009535D02*
X016959Y009535D01*
X016959Y009693D02*
X016799Y009693D01*
X016799Y009852D02*
X016959Y009852D01*
X016959Y010327D02*
X016799Y010327D01*
X016799Y010486D02*
X016959Y010486D01*
X016959Y010644D02*
X016799Y010644D01*
X016799Y010803D02*
X015266Y010803D01*
X015266Y010699D02*
X015839Y010699D01*
X015839Y010381D01*
X015826Y010335D01*
X015803Y010294D01*
X015769Y010261D01*
X015728Y010237D01*
X015682Y010225D01*
X015266Y010225D01*
X015266Y010699D01*
X015266Y010644D02*
X015106Y010644D01*
X015106Y010486D02*
X015266Y010486D01*
X015266Y010327D02*
X015106Y010327D01*
X015106Y009852D02*
X015266Y009852D01*
X015266Y009693D02*
X015106Y009693D01*
X015106Y009535D02*
X015266Y009535D01*
X015839Y009535D02*
X016227Y009535D01*
X016227Y009693D02*
X015839Y009693D01*
X015797Y009852D02*
X016268Y009852D01*
X016244Y010327D02*
X015822Y010327D01*
X015839Y010486D02*
X016227Y010486D01*
X016227Y010644D02*
X015839Y010644D01*
X015839Y010961D02*
X016227Y010961D01*
X016227Y011120D02*
X015839Y011120D01*
X015788Y011278D02*
X016277Y011278D01*
X016799Y011278D02*
X016959Y011278D01*
X016959Y011120D02*
X016799Y011120D01*
X016799Y010961D02*
X016959Y010961D01*
X016959Y010803D02*
X017935Y010803D01*
X018336Y010542D02*
X018932Y010542D01*
X019210Y010560D01*
X019492Y010290D02*
X019541Y010339D01*
X019600Y010482D01*
X019600Y010638D01*
X019541Y010781D01*
X019431Y010891D01*
X019288Y010950D01*
X019132Y010950D01*
X018989Y010891D01*
X018879Y010781D01*
X018872Y010762D01*
X018712Y010762D01*
X018716Y010767D01*
X018740Y010808D01*
X018752Y010853D01*
X018752Y011015D01*
X018752Y011120D02*
X020886Y011120D01*
X020736Y011278D02*
X018738Y011278D01*
X018752Y011437D02*
X020585Y011437D01*
X020435Y011595D02*
X018752Y011595D01*
X018698Y011754D02*
X020284Y011754D01*
X020134Y011912D02*
X018740Y011912D01*
X018752Y012071D02*
X019983Y012071D01*
X019832Y012229D02*
X018374Y012229D01*
X018374Y012254D02*
X018752Y012254D01*
X018752Y012476D01*
X018740Y012521D01*
X018716Y012562D01*
X018682Y012596D01*
X018641Y012620D01*
X018596Y012632D01*
X018374Y012632D01*
X018374Y012254D01*
X018298Y012229D02*
X018004Y012229D01*
X017686Y012229D02*
X017686Y012229D01*
X017686Y012071D02*
X017686Y012071D01*
X017686Y011912D02*
X017686Y011912D01*
X017686Y012388D02*
X017686Y012388D01*
X017686Y012546D02*
X017686Y012546D01*
X017420Y012705D02*
X019381Y012705D01*
X019230Y012863D02*
X017420Y012863D01*
X017420Y013022D02*
X019080Y013022D01*
X018929Y013180D02*
X017353Y013180D01*
X017194Y013339D02*
X018778Y013339D01*
X018628Y013497D02*
X017036Y013497D01*
X016877Y013656D02*
X018477Y013656D01*
X018327Y013814D02*
X016870Y013814D01*
X016870Y013973D02*
X018176Y013973D01*
X018026Y014131D02*
X016870Y014131D01*
X016870Y014290D02*
X017875Y014290D01*
X017724Y014448D02*
X017135Y014448D01*
X017135Y014607D02*
X017574Y014607D01*
X017423Y014765D02*
X017135Y014765D01*
X017135Y014924D02*
X017273Y014924D01*
X018500Y015900D02*
X020190Y014210D01*
X020381Y013497D02*
X030170Y013497D01*
X030170Y013339D02*
X020539Y013339D01*
X020698Y013180D02*
X030170Y013180D01*
X030170Y013022D02*
X020856Y013022D01*
X019682Y012388D02*
X018752Y012388D01*
X018725Y012546D02*
X019531Y012546D01*
X018374Y012546D02*
X018298Y012546D01*
X018298Y012388D02*
X018374Y012388D01*
X018374Y012071D02*
X018298Y012071D01*
X018298Y011912D02*
X018374Y011912D01*
X018336Y011754D02*
X018336Y011754D01*
X018336Y011595D02*
X018336Y011595D01*
X018336Y011487D02*
X018336Y011487D01*
X018336Y011437D02*
X018336Y011437D01*
X018336Y011278D02*
X018336Y011278D01*
X018336Y011120D02*
X018336Y011120D01*
X018737Y010803D02*
X018901Y010803D01*
X019519Y010803D02*
X025230Y010803D01*
X025110Y010644D02*
X019597Y010644D01*
X019600Y010486D02*
X025110Y010486D01*
X025110Y010327D02*
X022492Y010327D01*
X022514Y010305D02*
X022432Y010387D01*
X022040Y010387D01*
X021980Y010327D01*
X021920Y010387D01*
X021528Y010387D01*
X021446Y010305D01*
X021446Y010290D01*
X019492Y010290D01*
X019529Y010327D02*
X021468Y010327D01*
X021724Y010070D02*
X018336Y010070D01*
X017985Y009376D02*
X016959Y009376D01*
X016959Y009218D02*
X016799Y009218D01*
X016799Y009281D02*
X016799Y008807D01*
X016383Y008807D01*
X016337Y008820D01*
X016296Y008843D01*
X016262Y008877D01*
X016239Y008918D01*
X016227Y008964D01*
X016227Y009281D01*
X016799Y009281D01*
X016799Y009059D02*
X016959Y009059D01*
X016959Y008901D02*
X016799Y008901D01*
X016249Y008901D02*
X015816Y008901D01*
X015839Y009059D02*
X016227Y009059D01*
X016227Y009218D02*
X015839Y009218D01*
X015266Y009059D02*
X015106Y009059D01*
X015106Y008901D02*
X015266Y008901D01*
X015266Y008498D02*
X015266Y008024D01*
X015106Y008024D01*
X015106Y007864D01*
X014534Y007864D01*
X014534Y007546D01*
X014546Y007501D01*
X014570Y007459D01*
X014603Y007426D01*
X014644Y007402D01*
X014690Y007390D01*
X015106Y007390D01*
X015106Y007864D01*
X015266Y007864D01*
X015266Y007390D01*
X015682Y007390D01*
X015728Y007402D01*
X015769Y007426D01*
X015803Y007459D01*
X015826Y007501D01*
X015839Y007546D01*
X015839Y007864D01*
X015266Y007864D01*
X015266Y008024D01*
X015839Y008024D01*
X015839Y008342D01*
X015826Y008388D01*
X015803Y008429D01*
X015769Y008462D01*
X015728Y008486D01*
X015682Y008498D01*
X015266Y008498D01*
X015266Y008425D02*
X015106Y008425D01*
X015106Y008498D02*
X015106Y008024D01*
X014534Y008024D01*
X014534Y008342D01*
X014546Y008388D01*
X014570Y008429D01*
X014603Y008462D01*
X014644Y008486D01*
X014690Y008498D01*
X015106Y008498D01*
X015106Y008267D02*
X015266Y008267D01*
X015266Y008108D02*
X015106Y008108D01*
X015106Y007950D02*
X014071Y007950D01*
X014106Y008108D02*
X014534Y008108D01*
X014534Y008267D02*
X014106Y008267D01*
X014122Y008425D02*
X014568Y008425D01*
X014534Y007791D02*
X014106Y007791D01*
X014106Y007633D02*
X014534Y007633D01*
X014561Y007474D02*
X014068Y007474D01*
X013729Y007708D02*
X012780Y007708D01*
X012780Y007726D01*
X012463Y007791D02*
X011000Y007791D01*
X011000Y007633D02*
X012463Y007633D01*
X012519Y007474D02*
X011000Y007474D01*
X011000Y007316D02*
X012463Y007316D01*
X012463Y007157D02*
X011000Y007157D01*
X011000Y006999D02*
X012483Y006999D01*
X012780Y007214D02*
X012780Y007235D01*
X013729Y007235D01*
X013691Y006923D02*
X013469Y006923D01*
X013424Y006911D01*
X013383Y006887D01*
X013349Y006854D01*
X013325Y006813D01*
X013313Y006767D01*
X013313Y006545D01*
X013691Y006545D01*
X013691Y006469D01*
X013313Y006469D01*
X013313Y006247D01*
X013325Y006201D01*
X013349Y006160D01*
X013383Y006127D01*
X013424Y006103D01*
X013469Y006091D01*
X013691Y006091D01*
X013691Y006469D01*
X013767Y006469D01*
X013767Y006091D01*
X013989Y006091D01*
X014035Y006103D01*
X014076Y006127D01*
X014110Y006160D01*
X014126Y006188D01*
X014144Y006170D01*
X014144Y005943D01*
X014086Y005885D01*
X014086Y005415D01*
X014168Y005333D01*
X014560Y005333D01*
X014620Y005393D01*
X014680Y005333D01*
X015072Y005333D01*
X015154Y005415D01*
X015154Y005885D01*
X015096Y005943D01*
X015096Y006115D01*
X015117Y006103D01*
X015162Y006091D01*
X015324Y006091D01*
X015485Y006091D01*
X015531Y006103D01*
X015560Y006120D01*
X015589Y006103D01*
X015635Y006091D01*
X015796Y006091D01*
X015796Y006507D01*
X015479Y006507D01*
X015324Y006507D01*
X015796Y006507D01*
X015796Y006507D01*
X015796Y006507D01*
X015796Y006923D01*
X015635Y006923D01*
X015589Y006911D01*
X015560Y006894D01*
X015531Y006911D01*
X015485Y006923D01*
X015324Y006923D01*
X015324Y006507D01*
X015324Y006507D01*
X015324Y006091D01*
X015324Y006507D01*
X015324Y006507D01*
X015324Y006507D01*
X015324Y006923D01*
X015162Y006923D01*
X015117Y006911D01*
X015076Y006887D01*
X015059Y006871D01*
X015047Y006883D01*
X014656Y006883D01*
X014615Y006843D01*
X014575Y006883D01*
X014183Y006883D01*
X014126Y006826D01*
X014110Y006854D01*
X014076Y006887D01*
X014035Y006911D01*
X013989Y006923D01*
X013767Y006923D01*
X013767Y006545D01*
X013691Y006545D01*
X013691Y006923D01*
X013691Y006840D02*
X013767Y006840D01*
X013767Y006682D02*
X013691Y006682D01*
X013691Y006523D02*
X011000Y006523D01*
X011000Y006365D02*
X013313Y006365D01*
X013324Y006206D02*
X011000Y006206D01*
X011000Y006048D02*
X014144Y006048D01*
X014090Y005889D02*
X011000Y005889D01*
X011000Y005731D02*
X014086Y005731D01*
X014086Y005572D02*
X011000Y005572D01*
X011000Y005414D02*
X014088Y005414D01*
X014364Y005650D02*
X014364Y006507D01*
X014379Y006507D01*
X014140Y006840D02*
X014118Y006840D01*
X014065Y006999D02*
X017949Y006999D01*
X017686Y006840D02*
X017686Y006840D01*
X017686Y006682D02*
X017686Y006682D01*
X017214Y006531D02*
X017214Y006507D01*
X016741Y006523D02*
X016741Y006523D01*
X016741Y006365D02*
X016741Y006365D01*
X016741Y006206D02*
X016741Y006206D01*
X016936Y006048D02*
X015096Y006048D01*
X015150Y005889D02*
X016936Y005889D01*
X016928Y005731D02*
X015154Y005731D01*
X015154Y005572D02*
X016941Y005572D01*
X016926Y005608D02*
X016926Y005608D01*
X017004Y005414D02*
X015152Y005414D01*
X014876Y005650D02*
X014876Y006507D01*
X014851Y006507D01*
X015324Y006523D02*
X015324Y006523D01*
X015324Y006365D02*
X015324Y006365D01*
X015324Y006206D02*
X015324Y006206D01*
X015796Y006206D02*
X015796Y006206D01*
X015796Y006091D02*
X015958Y006091D01*
X016004Y006103D01*
X016033Y006120D01*
X016061Y006103D01*
X016107Y006091D01*
X016269Y006091D01*
X016269Y006507D01*
X016269Y006507D01*
X016269Y006507D01*
X016269Y006923D01*
X016107Y006923D01*
X016061Y006911D01*
X016033Y006894D01*
X016004Y006911D01*
X015958Y006923D01*
X015796Y006923D01*
X015796Y006507D01*
X015796Y006507D01*
X015796Y006091D01*
X015796Y006365D02*
X015796Y006365D01*
X015796Y006507D02*
X015796Y006507D01*
X016269Y006507D01*
X015951Y006507D01*
X015796Y006507D01*
X015796Y006523D02*
X015796Y006523D01*
X015796Y006682D02*
X015796Y006682D01*
X015796Y006840D02*
X015796Y006840D01*
X016269Y006840D02*
X016269Y006840D01*
X016269Y006682D02*
X016269Y006682D01*
X016269Y006523D02*
X016269Y006523D01*
X016269Y006507D02*
X016269Y006507D01*
X016269Y006365D02*
X016269Y006365D01*
X016269Y006206D02*
X016269Y006206D01*
X016741Y006682D02*
X016741Y006682D01*
X016741Y006840D02*
X016741Y006840D01*
X016799Y007390D02*
X016383Y007390D01*
X016337Y007402D01*
X016296Y007426D01*
X016262Y007459D01*
X016239Y007501D01*
X016227Y007546D01*
X016227Y007864D01*
X016799Y007864D01*
X016799Y007390D01*
X016799Y007474D02*
X016959Y007474D01*
X016959Y007633D02*
X016799Y007633D01*
X016799Y007791D02*
X016959Y007791D01*
X016959Y007950D02*
X017994Y007950D01*
X018336Y007708D02*
X019288Y007708D01*
X019290Y007710D01*
X018978Y007950D02*
X018677Y007950D01*
X018680Y008425D02*
X018963Y008425D01*
X019287Y008653D02*
X019290Y008650D01*
X019287Y008653D02*
X018336Y008653D01*
X018336Y009125D02*
X022039Y009125D01*
X022254Y009340D01*
X022250Y009340D01*
X022250Y010050D01*
X022236Y010070D01*
X022514Y010010D02*
X027500Y010010D01*
X027500Y009852D02*
X022514Y009852D01*
X022514Y009835D02*
X022514Y010305D01*
X022514Y010169D02*
X025259Y010169D01*
X025841Y010169D02*
X026203Y010169D01*
X026070Y010327D02*
X025990Y010327D01*
X026530Y010327D02*
X026570Y010327D01*
X026570Y010169D02*
X026530Y010169D01*
X026897Y010169D02*
X027500Y010169D01*
X027500Y010327D02*
X027030Y010327D01*
X026570Y010644D02*
X026530Y010644D01*
X026530Y010803D02*
X026570Y010803D01*
X026570Y010961D02*
X026530Y010961D01*
X026530Y012071D02*
X026570Y012071D01*
X026570Y012229D02*
X026530Y012229D01*
X026530Y012388D02*
X026570Y012388D01*
X026570Y012546D02*
X026530Y012546D01*
X026530Y012705D02*
X026570Y012705D01*
X026076Y012705D02*
X026050Y012705D01*
X026050Y012546D02*
X026070Y012546D01*
X026070Y012388D02*
X026050Y012388D01*
X026927Y013656D02*
X030170Y013656D01*
X030170Y013814D02*
X027149Y013814D01*
X027303Y013973D02*
X030170Y013973D01*
X030039Y014131D02*
X027369Y014131D01*
X027434Y014290D02*
X029880Y014290D01*
X029722Y014448D02*
X027444Y014448D01*
X027444Y014607D02*
X029563Y014607D01*
X029405Y014765D02*
X027412Y014765D01*
X027346Y014924D02*
X029246Y014924D01*
X029088Y015082D02*
X027253Y015082D01*
X027094Y015241D02*
X028929Y015241D01*
X028771Y015399D02*
X026796Y015399D01*
X026204Y015399D02*
X024599Y015399D01*
X024551Y015351D02*
X024669Y015468D01*
X024669Y016106D01*
X024551Y016224D01*
X023126Y016224D01*
X023009Y016106D01*
X023009Y015468D01*
X023126Y015351D01*
X024551Y015351D01*
X024669Y015558D02*
X028612Y015558D01*
X028454Y015716D02*
X024669Y015716D01*
X024669Y015875D02*
X028295Y015875D01*
X028137Y016033D02*
X024669Y016033D01*
X024583Y016192D02*
X027978Y016192D01*
X027820Y016350D02*
X018780Y016350D01*
X018780Y016192D02*
X020417Y016192D01*
X020449Y016224D02*
X020361Y016136D01*
X020341Y016145D01*
X020199Y016145D01*
X020069Y016091D01*
X019969Y015991D01*
X019915Y015861D01*
X019915Y015719D01*
X019969Y015589D01*
X020069Y015489D01*
X020199Y015435D01*
X020341Y015435D01*
X020358Y015442D01*
X020449Y015351D01*
X021874Y015351D01*
X021991Y015468D01*
X021991Y016106D01*
X021874Y016224D01*
X020449Y016224D01*
X020011Y016033D02*
X018780Y016033D01*
X018921Y015875D02*
X019921Y015875D01*
X019916Y015716D02*
X019080Y015716D01*
X019238Y015558D02*
X020000Y015558D01*
X020270Y015790D02*
X020273Y015787D01*
X021161Y015787D01*
X020401Y015399D02*
X019397Y015399D01*
X019555Y015241D02*
X025906Y015241D01*
X025747Y015082D02*
X019714Y015082D01*
X019872Y014924D02*
X025654Y014924D01*
X027661Y016509D02*
X018780Y016509D01*
X018780Y016667D02*
X027503Y016667D01*
X027344Y016826D02*
X018780Y016826D01*
X018780Y016984D02*
X023924Y016984D01*
X023916Y016989D02*
X023957Y016965D01*
X024003Y016953D01*
X024164Y016953D01*
X024164Y017310D01*
X023846Y017310D01*
X024164Y017310D01*
X024164Y017310D01*
X024164Y017310D01*
X024164Y017667D01*
X024003Y017667D01*
X023957Y017655D01*
X023916Y017631D01*
X023882Y017598D01*
X023859Y017557D01*
X023846Y017511D01*
X023846Y017310D01*
X023846Y017109D01*
X023859Y017063D01*
X023882Y017022D01*
X023916Y016989D01*
X023846Y017143D02*
X022205Y017143D01*
X022154Y017091D02*
X022271Y017208D01*
X022271Y017215D01*
X022361Y017215D01*
X022491Y017269D01*
X022591Y017369D01*
X022645Y017499D01*
X022645Y017641D01*
X022591Y017771D01*
X022491Y017871D01*
X022361Y017925D01*
X022271Y017925D01*
X022271Y017925D01*
X022154Y018043D01*
X021865Y018043D01*
X021897Y018075D01*
X021897Y018153D01*
X022796Y018153D01*
X022796Y017752D01*
X022913Y017635D01*
X023669Y017635D01*
X023786Y017752D01*
X023786Y018508D01*
X023669Y018625D01*
X023192Y018625D01*
X023147Y018670D01*
X023044Y018713D01*
X021897Y018713D01*
X021897Y018792D01*
X021780Y018909D01*
X021220Y018909D01*
X021103Y018792D01*
X021103Y018075D01*
X021135Y018043D01*
X020846Y018043D01*
X020729Y017925D01*
X020729Y017844D01*
X019866Y017844D01*
X019877Y017855D01*
X019877Y018297D01*
X019802Y018372D01*
X019855Y018499D01*
X019855Y018641D01*
X019801Y018771D01*
X019701Y018871D01*
X019571Y018925D01*
X019429Y018925D01*
X019299Y018871D01*
X019199Y018771D01*
X019145Y018641D01*
X019145Y018499D01*
X019198Y018372D01*
X019123Y018297D01*
X019123Y017855D01*
X019158Y017820D01*
X019123Y017785D01*
X019123Y017343D01*
X019240Y017226D01*
X019760Y017226D01*
X019818Y017284D01*
X020729Y017284D01*
X020729Y017208D01*
X020846Y017091D01*
X021406Y017091D01*
X021500Y017186D01*
X021594Y017091D01*
X022154Y017091D01*
X022523Y017301D02*
X023846Y017301D01*
X023846Y017460D02*
X022628Y017460D01*
X022645Y017618D02*
X023903Y017618D01*
X023786Y017777D02*
X024174Y017777D01*
X024174Y017752D02*
X024258Y017667D01*
X024164Y017667D01*
X024164Y017310D01*
X024164Y017310D01*
X024164Y016953D01*
X024326Y016953D01*
X024371Y016965D01*
X024404Y016984D01*
X024455Y016933D01*
X024897Y016933D01*
X025014Y017050D01*
X025014Y017570D01*
X024956Y017628D01*
X024956Y017635D01*
X025047Y017635D01*
X025164Y017752D01*
X025164Y018508D01*
X025047Y018625D01*
X024291Y018625D01*
X024174Y018508D01*
X024174Y017752D01*
X024164Y017618D02*
X024164Y017618D01*
X024164Y017460D02*
X024164Y017460D01*
X024164Y017301D02*
X024164Y017301D01*
X024164Y017143D02*
X024164Y017143D01*
X024164Y016984D02*
X024164Y016984D01*
X024676Y017310D02*
X024676Y018123D01*
X025164Y018094D02*
X026170Y018094D01*
X026170Y018252D02*
X025164Y018252D01*
X025164Y018411D02*
X026170Y018411D01*
X026170Y018569D02*
X025103Y018569D01*
X025164Y017935D02*
X026235Y017935D01*
X026393Y017777D02*
X025164Y017777D01*
X024966Y017618D02*
X026552Y017618D01*
X026710Y017460D02*
X025014Y017460D01*
X025014Y017301D02*
X026869Y017301D01*
X027027Y017143D02*
X025014Y017143D01*
X024948Y016984D02*
X027186Y016984D01*
X026170Y018728D02*
X021897Y018728D01*
X021802Y018886D02*
X026170Y018886D01*
X026170Y019045D02*
X000830Y019045D01*
X000830Y019203D02*
X026170Y019203D01*
X026170Y019362D02*
X000830Y019362D01*
X000830Y019520D02*
X026170Y019520D01*
X026170Y019679D02*
X006983Y019679D01*
X007172Y019837D02*
X026170Y019837D01*
X026170Y019996D02*
X025745Y019996D01*
X025720Y019970D02*
X026030Y020280D01*
X026030Y020720D01*
X025720Y021030D01*
X025280Y021030D01*
X025000Y020750D01*
X024720Y021030D01*
X024280Y021030D01*
X024000Y020750D01*
X023720Y021030D01*
X023280Y021030D01*
X023000Y020750D01*
X022720Y021030D01*
X022280Y021030D01*
X022000Y020750D01*
X021720Y021030D01*
X021280Y021030D01*
X021000Y020750D01*
X020720Y021030D01*
X020280Y021030D01*
X020000Y020750D01*
X019720Y021030D01*
X019280Y021030D01*
X019000Y020750D01*
X018720Y021030D01*
X018280Y021030D01*
X017970Y020720D01*
X017970Y020280D01*
X018280Y019970D01*
X018720Y019970D01*
X019000Y020250D01*
X019280Y019970D01*
X019720Y019970D01*
X020000Y020250D01*
X020280Y019970D01*
X020720Y019970D01*
X021000Y020250D01*
X021280Y019970D01*
X021720Y019970D01*
X022000Y020250D01*
X022280Y019970D01*
X022720Y019970D01*
X023000Y020250D01*
X023280Y019970D01*
X023720Y019970D01*
X024000Y020250D01*
X024280Y019970D01*
X024720Y019970D01*
X025000Y020250D01*
X025280Y019970D01*
X025720Y019970D01*
X025904Y020154D02*
X026170Y020154D01*
X026170Y020313D02*
X026030Y020313D01*
X026030Y020471D02*
X026170Y020471D01*
X026170Y020630D02*
X026030Y020630D01*
X025961Y020788D02*
X026132Y020788D01*
X025973Y020947D02*
X025803Y020947D01*
X025815Y021105D02*
X007230Y021105D01*
X007337Y020947D02*
X007597Y020947D01*
X007439Y020788D02*
X007402Y020788D01*
X008203Y020947D02*
X008597Y020947D01*
X008439Y020788D02*
X008361Y020788D01*
X009203Y020947D02*
X009597Y020947D01*
X009438Y020788D02*
X009361Y020788D01*
X009304Y020154D02*
X009496Y020154D01*
X009655Y019996D02*
X009145Y019996D01*
X008655Y019996D02*
X008145Y019996D01*
X008304Y020154D02*
X008496Y020154D01*
X007655Y019996D02*
X007313Y019996D01*
X007378Y020154D02*
X007496Y020154D01*
X006017Y019679D02*
X000830Y019679D01*
X000830Y019837D02*
X005828Y019837D01*
X005687Y019996D02*
X000830Y019996D01*
X000830Y020154D02*
X005622Y020154D01*
X005556Y020313D02*
X000830Y020313D01*
X000830Y020471D02*
X005556Y020471D01*
X005556Y020630D02*
X000830Y020630D01*
X000830Y020788D02*
X005598Y020788D01*
X005663Y020947D02*
X000830Y020947D01*
X000830Y021105D02*
X005770Y021105D01*
X010203Y020947D02*
X010597Y020947D01*
X010439Y020788D02*
X010361Y020788D01*
X010304Y020154D02*
X010496Y020154D01*
X010655Y019996D02*
X010145Y019996D01*
X011145Y019996D02*
X011655Y019996D01*
X011496Y020154D02*
X011304Y020154D01*
X011361Y020788D02*
X011439Y020788D01*
X011597Y020947D02*
X011203Y020947D01*
X012203Y020947D02*
X012597Y020947D01*
X012439Y020788D02*
X012361Y020788D01*
X013203Y020947D02*
X013597Y020947D01*
X013439Y020788D02*
X013361Y020788D01*
X013304Y020154D02*
X013496Y020154D01*
X013655Y019996D02*
X013145Y019996D01*
X012655Y019996D02*
X012145Y019996D01*
X012304Y020154D02*
X012496Y020154D01*
X014145Y019996D02*
X014655Y019996D01*
X014496Y020154D02*
X014304Y020154D01*
X014361Y020788D02*
X014439Y020788D01*
X014597Y020947D02*
X014203Y020947D01*
X015203Y020947D02*
X015597Y020947D01*
X015439Y020788D02*
X015361Y020788D01*
X015304Y020154D02*
X015496Y020154D01*
X015655Y019996D02*
X015145Y019996D01*
X016145Y019996D02*
X016655Y019996D01*
X016496Y020154D02*
X016304Y020154D01*
X017145Y019996D02*
X018255Y019996D01*
X018096Y020154D02*
X017304Y020154D01*
X017430Y020313D02*
X017970Y020313D01*
X017970Y020471D02*
X017430Y020471D01*
X017430Y020630D02*
X017970Y020630D01*
X018038Y020788D02*
X017361Y020788D01*
X017203Y020947D02*
X018197Y020947D01*
X018803Y020947D02*
X019197Y020947D01*
X019039Y020788D02*
X018961Y020788D01*
X018904Y020154D02*
X019096Y020154D01*
X019255Y019996D02*
X018745Y019996D01*
X019745Y019996D02*
X020255Y019996D01*
X020096Y020154D02*
X019904Y020154D01*
X019961Y020788D02*
X020039Y020788D01*
X020197Y020947D02*
X019803Y020947D01*
X020803Y020947D02*
X021197Y020947D01*
X021039Y020788D02*
X020961Y020788D01*
X021803Y020947D02*
X022197Y020947D01*
X022038Y020788D02*
X021961Y020788D01*
X021904Y020154D02*
X022096Y020154D01*
X022255Y019996D02*
X021745Y019996D01*
X021255Y019996D02*
X020745Y019996D01*
X020904Y020154D02*
X021096Y020154D01*
X022745Y019996D02*
X023255Y019996D01*
X023096Y020154D02*
X022904Y020154D01*
X022961Y020788D02*
X023038Y020788D01*
X023197Y020947D02*
X022803Y020947D01*
X023803Y020947D02*
X024197Y020947D01*
X024038Y020788D02*
X023961Y020788D01*
X023904Y020154D02*
X024096Y020154D01*
X024255Y019996D02*
X023745Y019996D01*
X024745Y019996D02*
X025255Y019996D01*
X025096Y020154D02*
X024904Y020154D01*
X024961Y020788D02*
X025038Y020788D01*
X025197Y020947D02*
X024803Y020947D01*
X024235Y018569D02*
X023725Y018569D01*
X023786Y018411D02*
X024174Y018411D01*
X024174Y018252D02*
X023786Y018252D01*
X023786Y018094D02*
X024174Y018094D01*
X024174Y017935D02*
X023786Y017935D01*
X023291Y018130D02*
X022988Y018433D01*
X021500Y018433D01*
X021103Y018411D02*
X019818Y018411D01*
X019855Y018569D02*
X021103Y018569D01*
X021103Y018728D02*
X019819Y018728D01*
X019665Y018886D02*
X021198Y018886D01*
X021103Y018252D02*
X019877Y018252D01*
X019877Y018094D02*
X021103Y018094D01*
X020739Y017935D02*
X019877Y017935D01*
X019500Y018076D02*
X019500Y018570D01*
X019145Y018569D02*
X018845Y018569D01*
X018821Y018728D02*
X019181Y018728D01*
X019335Y018886D02*
X018706Y018886D01*
X018274Y018886D02*
X000830Y018886D01*
X000830Y018728D02*
X018159Y018728D01*
X018135Y018569D02*
X000830Y018569D01*
X000830Y018411D02*
X014308Y018411D01*
X014309Y018411D02*
X014209Y018311D01*
X014155Y018181D01*
X014155Y018039D01*
X014209Y017909D01*
X014309Y017809D01*
X014439Y017755D01*
X014581Y017755D01*
X014595Y017761D01*
X014545Y017641D01*
X014545Y017499D01*
X014599Y017369D01*
X014699Y017269D01*
X014829Y017215D01*
X014865Y017215D01*
X014865Y016704D01*
X014983Y016587D01*
X015286Y016587D01*
X015306Y016607D01*
X015386Y016607D01*
X015386Y016342D01*
X015412Y016280D01*
X012862Y016280D01*
X012892Y016288D01*
X012933Y016312D01*
X012966Y016345D01*
X012990Y016386D01*
X013002Y016432D01*
X013002Y016692D01*
X013002Y016952D01*
X012990Y016998D01*
X012966Y017039D01*
X012933Y017072D01*
X012892Y017096D01*
X012846Y017108D01*
X012714Y017108D01*
X012695Y017108D01*
X012695Y017171D01*
X012641Y017301D01*
X014667Y017301D01*
X014562Y017460D02*
X011886Y017460D01*
X011886Y017517D02*
X011895Y017539D01*
X011895Y017681D01*
X011841Y017811D01*
X011741Y017911D01*
X011611Y017965D01*
X011469Y017965D01*
X011339Y017911D01*
X011239Y017811D01*
X011185Y017681D01*
X011185Y017539D01*
X011194Y017517D01*
X011194Y017021D01*
X011214Y017001D01*
X011214Y016814D01*
X011540Y016814D01*
X011540Y016814D01*
X011678Y016814D01*
X011678Y016814D01*
X011540Y016814D01*
X011540Y016814D01*
X011966Y016814D01*
X011966Y016692D01*
X011966Y016692D01*
X011966Y017108D01*
X011985Y017108D01*
X011985Y017171D01*
X012039Y017301D01*
X011886Y017301D01*
X012039Y017301D02*
X012139Y017401D01*
X012269Y017455D01*
X012411Y017455D01*
X012541Y017401D01*
X012641Y017301D01*
X012695Y017143D02*
X014865Y017143D01*
X014865Y016984D02*
X012994Y016984D01*
X013002Y016826D02*
X014865Y016826D01*
X014902Y016667D02*
X013002Y016667D01*
X013002Y016692D02*
X012714Y016692D01*
X012714Y017108D01*
X012714Y016692D01*
X012714Y016692D01*
X013002Y016692D01*
X013002Y016509D02*
X015386Y016509D01*
X015386Y016350D02*
X012969Y016350D01*
X012714Y016692D02*
X012714Y016692D01*
X012714Y016826D02*
X012714Y016826D01*
X012714Y016984D02*
X012714Y016984D01*
X012340Y017100D02*
X012340Y016692D01*
X011966Y016692D02*
X011966Y017108D01*
X011886Y017108D01*
X011886Y017517D01*
X011895Y017618D02*
X014545Y017618D01*
X014387Y017777D02*
X011855Y017777D01*
X011683Y017935D02*
X014198Y017935D01*
X014155Y018094D02*
X000830Y018094D01*
X000830Y018252D02*
X014185Y018252D01*
X014309Y018411D02*
X014439Y018465D01*
X014581Y018465D01*
X014643Y018439D01*
X014659Y018456D01*
X015189Y018456D01*
X015209Y018436D01*
X015396Y018436D01*
X015396Y018110D01*
X015396Y018110D01*
X015396Y017784D01*
X015209Y017784D01*
X015198Y017774D01*
X015201Y017771D01*
X015255Y017641D01*
X015255Y017617D01*
X015286Y017617D01*
X015306Y017597D01*
X015390Y017597D01*
X015390Y017512D01*
X015390Y017512D01*
X015390Y017512D01*
X015390Y017597D01*
X015474Y017597D01*
X015494Y017617D01*
X015826Y017617D01*
X015803Y017671D01*
X015803Y017813D01*
X015857Y017943D01*
X015957Y018043D01*
X016087Y018097D01*
X016229Y018097D01*
X016359Y018043D01*
X016459Y017943D01*
X016505Y017832D01*
X016523Y017850D01*
X016545Y017873D01*
X016545Y017931D01*
X016599Y018061D01*
X016699Y018161D01*
X016829Y018215D01*
X016971Y018215D01*
X017101Y018161D01*
X017201Y018061D01*
X017255Y017931D01*
X017255Y017789D01*
X017201Y017659D01*
X017118Y017576D01*
X017195Y017499D01*
X017195Y017455D01*
X017241Y017455D01*
X017371Y017401D01*
X017471Y017301D01*
X017195Y017460D02*
X018123Y017460D01*
X018123Y017618D02*
X017160Y017618D01*
X017250Y017777D02*
X018123Y017777D01*
X018123Y017935D02*
X017253Y017935D01*
X017169Y018094D02*
X018123Y018094D01*
X018123Y018252D02*
X015758Y018252D01*
X015758Y018279D02*
X015746Y018325D01*
X015722Y018366D01*
X015689Y018400D01*
X015648Y018423D01*
X015602Y018436D01*
X015396Y018436D01*
X015396Y018110D01*
X015396Y018110D01*
X015396Y017784D01*
X015602Y017784D01*
X015648Y017797D01*
X015689Y017820D01*
X015722Y017854D01*
X015746Y017895D01*
X015758Y017941D01*
X015758Y018110D01*
X015758Y018279D01*
X015670Y018411D02*
X018184Y018411D01*
X018490Y018600D02*
X018500Y018600D01*
X018500Y018096D01*
X018877Y018094D02*
X019123Y018094D01*
X019123Y018252D02*
X018877Y018252D01*
X018796Y018411D02*
X019182Y018411D01*
X019123Y017935D02*
X018877Y017935D01*
X018877Y017777D02*
X019123Y017777D01*
X019123Y017618D02*
X018877Y017618D01*
X018877Y017460D02*
X019123Y017460D01*
X019165Y017301D02*
X018815Y017301D01*
X018780Y017143D02*
X020795Y017143D01*
X021123Y017564D02*
X021126Y017567D01*
X021123Y017564D02*
X019500Y017564D01*
X018500Y017584D02*
X018500Y015900D01*
X016547Y017935D02*
X016462Y017935D01*
X016631Y018094D02*
X016237Y018094D01*
X016079Y018094D02*
X015758Y018094D01*
X015758Y018110D02*
X015396Y018110D01*
X015758Y018110D01*
X015757Y017935D02*
X015854Y017935D01*
X015803Y017777D02*
X015201Y017777D01*
X015255Y017618D02*
X015825Y017618D01*
X015396Y017935D02*
X015396Y017935D01*
X015396Y018094D02*
X015396Y018094D01*
X015396Y018110D02*
X015396Y018110D01*
X015396Y018252D02*
X015396Y018252D01*
X015396Y018411D02*
X015396Y018411D01*
X016361Y020788D02*
X016439Y020788D01*
X016597Y020947D02*
X016203Y020947D01*
X011397Y017935D02*
X000830Y017935D01*
X000830Y017777D02*
X011225Y017777D01*
X011185Y017618D02*
X000830Y017618D01*
X000830Y017460D02*
X011194Y017460D01*
X011194Y017301D02*
X000830Y017301D01*
X000830Y017143D02*
X011194Y017143D01*
X011214Y016984D02*
X000830Y016984D01*
X000830Y016826D02*
X011214Y016826D01*
X011214Y016814D02*
X011214Y016608D01*
X011227Y016562D01*
X011250Y016521D01*
X011284Y016488D01*
X011325Y016464D01*
X011371Y016452D01*
X011540Y016452D01*
X011678Y016452D01*
X011678Y016432D01*
X011690Y016386D01*
X011714Y016345D01*
X011747Y016312D01*
X011788Y016288D01*
X011818Y016280D01*
X010944Y016280D01*
X010841Y016237D01*
X010763Y016159D01*
X010720Y016056D01*
X010720Y003194D01*
X010763Y003091D01*
X010841Y003013D01*
X010944Y002970D01*
X025698Y002970D01*
X025700Y002965D01*
X025965Y002700D01*
X026312Y002556D01*
X026688Y002556D01*
X027035Y002700D01*
X027300Y002965D01*
X027302Y002970D01*
X029890Y002970D01*
X027750Y000830D01*
X006665Y000830D01*
X006800Y000965D01*
X006944Y001312D01*
X006944Y001688D01*
X006800Y002035D01*
X006535Y002300D01*
X006188Y002444D01*
X005812Y002444D01*
X005465Y002300D01*
X005200Y002035D01*
X005056Y001688D01*
X005056Y001312D01*
X005200Y000965D01*
X005335Y000830D01*
X000830Y000830D01*
X000830Y000976D02*
X005196Y000976D01*
X005130Y001134D02*
X000830Y001134D01*
X000830Y001293D02*
X005064Y001293D01*
X005056Y001451D02*
X000830Y001451D01*
X000830Y001610D02*
X005056Y001610D01*
X005090Y001768D02*
X000830Y001768D01*
X000830Y001927D02*
X005155Y001927D01*
X005250Y002085D02*
X000830Y002085D01*
X000830Y002244D02*
X005409Y002244D01*
X005711Y002402D02*
X000830Y002402D01*
X000830Y002561D02*
X026302Y002561D01*
X025946Y002719D02*
X000830Y002719D01*
X000830Y002878D02*
X025788Y002878D01*
X026698Y002561D02*
X029481Y002561D01*
X029639Y002719D02*
X027054Y002719D01*
X027212Y002878D02*
X029798Y002878D01*
X030170Y003353D02*
X011000Y003353D01*
X011000Y003512D02*
X030170Y003512D01*
X030170Y003670D02*
X011000Y003670D01*
X011000Y003829D02*
X030170Y003829D01*
X030170Y003987D02*
X011000Y003987D01*
X011000Y004146D02*
X030170Y004146D01*
X030170Y004304D02*
X011000Y004304D01*
X011000Y004463D02*
X030170Y004463D01*
X030170Y004621D02*
X011000Y004621D01*
X011000Y004780D02*
X030170Y004780D01*
X030170Y004938D02*
X029133Y004938D01*
X029470Y005097D02*
X030170Y005097D01*
X030170Y005255D02*
X029650Y005255D01*
X029765Y005414D02*
X030170Y005414D01*
X030170Y005572D02*
X029834Y005572D01*
X029796Y005456D02*
X029796Y005456D01*
X029885Y005731D02*
X030170Y005731D01*
X030170Y005889D02*
X029895Y005889D01*
X029895Y006048D02*
X030170Y006048D01*
X030170Y006206D02*
X029895Y006206D01*
X029322Y005889D02*
X023971Y005889D01*
X023976Y005872D02*
X023963Y005918D01*
X023940Y005959D01*
X023906Y005992D01*
X023865Y006016D01*
X023819Y006028D01*
X023650Y006028D01*
X023481Y006028D01*
X023435Y006016D01*
X023394Y005992D01*
X023360Y005959D01*
X023337Y005918D01*
X023324Y005872D01*
X023324Y005666D01*
X023650Y005666D01*
X023650Y005666D01*
X023650Y006060D01*
X023650Y006028D02*
X023650Y005666D01*
X023976Y005666D01*
X023976Y005872D01*
X023976Y005731D02*
X029280Y005731D01*
X029146Y005572D02*
X023976Y005572D01*
X023650Y005666D02*
X023650Y005666D01*
X023650Y006028D01*
X023650Y005889D02*
X023650Y005889D01*
X023650Y005731D02*
X023650Y005731D01*
X023324Y005731D02*
X022530Y005731D01*
X022525Y005889D02*
X023329Y005889D01*
X023324Y005572D02*
X022530Y005572D01*
X022692Y005476D02*
X022692Y005476D01*
X022205Y005663D02*
X022205Y005663D01*
X022205Y006025D01*
X022035Y006025D01*
X021989Y006013D01*
X021948Y005989D01*
X021915Y005956D01*
X021891Y005915D01*
X021879Y005869D01*
X021879Y005663D01*
X022205Y005663D01*
X022205Y005731D02*
X022205Y005731D01*
X022205Y005889D02*
X022205Y005889D01*
X021884Y005889D02*
X017491Y005889D01*
X017503Y005731D02*
X021879Y005731D01*
X021879Y005572D02*
X017578Y005572D01*
X017237Y005097D02*
X011000Y005097D01*
X011000Y005255D02*
X017084Y005255D01*
X017055Y005285D02*
X017055Y005285D01*
X017297Y005035D02*
X017297Y005035D01*
X017522Y004938D02*
X011000Y004938D01*
X010720Y004938D02*
X000830Y004938D01*
X000830Y004780D02*
X010720Y004780D01*
X010720Y004621D02*
X000830Y004621D01*
X000830Y004463D02*
X010720Y004463D01*
X010720Y004304D02*
X000830Y004304D01*
X000830Y004146D02*
X010720Y004146D01*
X010720Y003987D02*
X000830Y003987D01*
X000830Y003829D02*
X010720Y003829D01*
X010720Y003670D02*
X000830Y003670D01*
X000830Y003512D02*
X010720Y003512D01*
X010720Y003353D02*
X000830Y003353D01*
X000830Y003195D02*
X010720Y003195D01*
X010818Y003036D02*
X000830Y003036D01*
X000830Y005097D02*
X010720Y005097D01*
X010720Y005255D02*
X000830Y005255D01*
X000830Y005414D02*
X010720Y005414D01*
X010720Y005572D02*
X000830Y005572D01*
X000830Y005731D02*
X010720Y005731D01*
X010720Y005889D02*
X000830Y005889D01*
X000830Y006048D02*
X010720Y006048D01*
X010720Y006206D02*
X000830Y006206D01*
X000830Y006365D02*
X010720Y006365D01*
X010720Y006523D02*
X000830Y006523D01*
X000830Y006682D02*
X010720Y006682D01*
X010720Y006840D02*
X000830Y006840D01*
X000830Y006999D02*
X010720Y006999D01*
X010720Y007157D02*
X000830Y007157D01*
X000830Y007316D02*
X010720Y007316D01*
X010720Y007474D02*
X000830Y007474D01*
X000830Y007633D02*
X010720Y007633D01*
X010720Y007791D02*
X000830Y007791D01*
X000830Y007950D02*
X010720Y007950D01*
X010720Y008108D02*
X000830Y008108D01*
X000830Y008267D02*
X010720Y008267D01*
X010720Y008425D02*
X000830Y008425D01*
X000830Y008584D02*
X010720Y008584D01*
X010720Y008742D02*
X000830Y008742D01*
X000830Y008901D02*
X010720Y008901D01*
X010720Y009059D02*
X000830Y009059D01*
X000830Y009218D02*
X010720Y009218D01*
X010720Y009376D02*
X000830Y009376D01*
X000830Y009535D02*
X010720Y009535D01*
X010720Y009693D02*
X000830Y009693D01*
X000830Y009852D02*
X010720Y009852D01*
X010720Y010010D02*
X000830Y010010D01*
X000830Y010169D02*
X010720Y010169D01*
X010720Y010327D02*
X000830Y010327D01*
X000830Y010486D02*
X010720Y010486D01*
X010720Y010644D02*
X000830Y010644D01*
X000830Y010803D02*
X010720Y010803D01*
X010720Y010961D02*
X000830Y010961D01*
X000830Y011120D02*
X010720Y011120D01*
X010720Y011278D02*
X000830Y011278D01*
X000830Y011437D02*
X010720Y011437D01*
X010720Y011595D02*
X000830Y011595D01*
X000830Y011754D02*
X010720Y011754D01*
X010720Y011912D02*
X000830Y011912D01*
X000830Y012071D02*
X010720Y012071D01*
X010720Y012229D02*
X000830Y012229D01*
X000830Y012388D02*
X010720Y012388D01*
X010720Y012546D02*
X000830Y012546D01*
X000830Y012705D02*
X010720Y012705D01*
X010720Y012863D02*
X000830Y012863D01*
X000830Y013022D02*
X010720Y013022D01*
X010720Y013180D02*
X000830Y013180D01*
X000830Y013339D02*
X010720Y013339D01*
X010720Y013497D02*
X000830Y013497D01*
X000830Y013656D02*
X010720Y013656D01*
X010720Y013814D02*
X000830Y013814D01*
X000830Y013973D02*
X010720Y013973D01*
X010720Y014131D02*
X000830Y014131D01*
X000830Y014290D02*
X010720Y014290D01*
X010720Y014448D02*
X000830Y014448D01*
X000830Y014607D02*
X010720Y014607D01*
X010720Y014765D02*
X000830Y014765D01*
X000830Y014924D02*
X010720Y014924D01*
X010720Y015082D02*
X000830Y015082D01*
X000830Y015241D02*
X010720Y015241D01*
X010720Y015399D02*
X000830Y015399D01*
X000830Y015558D02*
X010720Y015558D01*
X010720Y015716D02*
X000830Y015716D01*
X000830Y015875D02*
X010720Y015875D01*
X010720Y016033D02*
X000830Y016033D01*
X000830Y016192D02*
X010796Y016192D01*
X011000Y015875D02*
X011718Y015875D01*
X011718Y015716D02*
X011000Y015716D01*
X011000Y015558D02*
X011718Y015558D01*
X011718Y015399D02*
X011000Y015399D01*
X011000Y015241D02*
X011882Y015241D01*
X011882Y015110D02*
X012244Y015110D01*
X012394Y015110D01*
X012244Y015110D01*
X012244Y015110D01*
X012244Y015110D01*
X012244Y015436D01*
X012450Y015436D01*
X012466Y015431D01*
X012466Y015962D01*
X012503Y016000D01*
X012177Y016000D01*
X012214Y015962D01*
X012214Y015436D01*
X012244Y015436D01*
X012244Y015110D01*
X012244Y014784D01*
X012244Y015110D01*
X012244Y015110D01*
X012250Y015110D01*
X012244Y015110D02*
X011882Y015110D01*
X011882Y015082D02*
X011000Y015082D01*
X011000Y014924D02*
X011886Y014924D01*
X012244Y014924D02*
X012244Y014924D01*
X012244Y015082D02*
X012244Y015082D01*
X012244Y015110D02*
X012244Y015110D01*
X012244Y015241D02*
X012244Y015241D01*
X012244Y015399D02*
X012244Y015399D01*
X012214Y015558D02*
X012466Y015558D01*
X012466Y015716D02*
X012214Y015716D01*
X012214Y015875D02*
X012466Y015875D01*
X012714Y015668D02*
X012716Y015666D01*
X012716Y015110D01*
X012394Y015110D02*
X012394Y015110D01*
X012464Y014765D02*
X011000Y014765D01*
X011000Y014607D02*
X012464Y014607D01*
X012464Y014448D02*
X011000Y014448D01*
X011000Y014290D02*
X012464Y014290D01*
X012464Y014131D02*
X011000Y014131D01*
X011000Y013973D02*
X012464Y013973D01*
X012464Y013814D02*
X011000Y013814D01*
X011000Y013656D02*
X012464Y013656D01*
X012464Y013497D02*
X011000Y013497D01*
X011000Y013339D02*
X012490Y013339D01*
X012630Y013180D02*
X011000Y013180D01*
X011000Y013022D02*
X012788Y013022D01*
X012826Y012863D02*
X011000Y012863D01*
X011000Y012705D02*
X012826Y012705D01*
X012826Y012546D02*
X011000Y012546D01*
X011000Y012388D02*
X012826Y012388D01*
X012826Y012229D02*
X011000Y012229D01*
X011000Y012071D02*
X012826Y012071D01*
X012826Y011912D02*
X011000Y011912D01*
X011000Y011754D02*
X012295Y011754D01*
X012288Y011746D02*
X012264Y011705D01*
X012252Y011659D01*
X012252Y011490D01*
X012252Y011321D01*
X012264Y011275D01*
X012288Y011234D01*
X012321Y011200D01*
X012362Y011177D01*
X012408Y011164D01*
X012614Y011164D01*
X012614Y011490D01*
X012614Y011490D01*
X012614Y011490D01*
X012614Y011766D01*
X012610Y011770D01*
X012614Y011754D02*
X012614Y011754D01*
X012614Y011816D02*
X012408Y011816D01*
X012362Y011803D01*
X012321Y011780D01*
X012288Y011746D01*
X012252Y011595D02*
X011000Y011595D01*
X011000Y011437D02*
X012252Y011437D01*
X012252Y011490D02*
X012614Y011490D01*
X012614Y011816D01*
X012614Y011595D02*
X012614Y011595D01*
X012614Y011490D02*
X012614Y011490D01*
X012252Y011490D01*
X012263Y011278D02*
X011000Y011278D01*
X011000Y011120D02*
X012826Y011120D01*
X012826Y010961D02*
X011000Y010961D01*
X011000Y010803D02*
X012826Y010803D01*
X012826Y010644D02*
X011000Y010644D01*
X011000Y010486D02*
X012826Y010486D01*
X012826Y010327D02*
X011000Y010327D01*
X011000Y010169D02*
X012826Y010169D01*
X012826Y010010D02*
X011000Y010010D01*
X011000Y009852D02*
X012293Y009852D01*
X012288Y009846D02*
X012264Y009805D01*
X012252Y009759D01*
X012252Y009590D01*
X012252Y009421D01*
X012264Y009375D01*
X012288Y009334D01*
X012321Y009300D01*
X012362Y009277D01*
X012408Y009264D01*
X012614Y009264D01*
X012614Y009590D01*
X012614Y009590D01*
X012614Y009590D01*
X012620Y009590D01*
X012620Y009870D01*
X012614Y009852D02*
X012614Y009852D01*
X012614Y009916D02*
X012408Y009916D01*
X012362Y009903D01*
X012321Y009880D01*
X012288Y009846D01*
X012252Y009693D02*
X011000Y009693D01*
X011000Y009535D02*
X012252Y009535D01*
X012252Y009590D02*
X012614Y009590D01*
X012614Y009916D01*
X012614Y009693D02*
X012614Y009693D01*
X012614Y009590D02*
X012614Y009590D01*
X012252Y009590D01*
X012264Y009376D02*
X011000Y009376D01*
X011000Y009218D02*
X012636Y009218D01*
X012614Y009376D02*
X012614Y009376D01*
X012614Y009535D02*
X012614Y009535D01*
X012570Y009059D02*
X011000Y009059D01*
X011000Y008901D02*
X012575Y008901D01*
X012656Y008742D02*
X011000Y008742D01*
X011000Y008584D02*
X013313Y008584D01*
X013313Y008742D02*
X013264Y008742D01*
X013729Y008653D02*
X013729Y008653D01*
X013337Y008425D02*
X012732Y008425D01*
X012560Y008180D02*
X013729Y008180D01*
X014110Y008901D02*
X014556Y008901D01*
X014534Y009059D02*
X014106Y009059D01*
X014106Y009218D02*
X014534Y009218D01*
X013729Y009590D02*
X013729Y009598D01*
X013729Y010070D02*
X013729Y010070D01*
X013729Y010169D02*
X013729Y010169D01*
X013729Y010327D02*
X013729Y010327D01*
X013729Y010486D02*
X013729Y010486D01*
X013729Y010644D02*
X013729Y010644D01*
X013729Y010803D02*
X013729Y010803D01*
X013729Y010961D02*
X013729Y010961D01*
X014095Y011278D02*
X014584Y011278D01*
X013729Y011490D02*
X013729Y011487D01*
X013424Y011754D02*
X013348Y011754D01*
X012614Y011437D02*
X012614Y011437D01*
X012614Y011278D02*
X012614Y011278D01*
X013691Y012388D02*
X013767Y012388D01*
X013767Y012546D02*
X013691Y012546D01*
X013206Y013339D02*
X015276Y013339D01*
X015434Y013497D02*
X015081Y013497D01*
X014794Y013497D02*
X014794Y013497D01*
X014794Y013464D02*
X014794Y013790D01*
X014794Y013790D01*
X014794Y013464D01*
X014794Y013656D02*
X014794Y013656D01*
X014794Y013790D02*
X014432Y013790D01*
X014794Y013790D01*
X014794Y013790D01*
X014507Y013497D02*
X013048Y013497D01*
X012984Y013656D02*
X014432Y013656D01*
X014432Y013814D02*
X012984Y013814D01*
X012984Y013973D02*
X014435Y013973D01*
X015524Y013022D02*
X015679Y013022D01*
X015683Y013180D02*
X015702Y013180D01*
X011711Y016350D02*
X000830Y016350D01*
X000830Y016509D02*
X011263Y016509D01*
X011214Y016667D02*
X000830Y016667D01*
X011214Y016814D02*
X011540Y016814D01*
X011546Y016814D01*
X011540Y016814D02*
X011540Y016452D01*
X011540Y016814D01*
X011540Y016814D01*
X011540Y016667D02*
X011540Y016667D01*
X011540Y016509D02*
X011540Y016509D01*
X011966Y016826D02*
X011966Y016826D01*
X011966Y016984D02*
X011966Y016984D01*
X011985Y017143D02*
X011886Y017143D01*
X011540Y017286D02*
X011540Y017610D01*
X021457Y017143D02*
X021543Y017143D01*
X021874Y017567D02*
X022287Y017567D01*
X022290Y017570D01*
X022586Y017777D02*
X022796Y017777D01*
X022796Y017935D02*
X022261Y017935D01*
X021897Y018094D02*
X022796Y018094D01*
X023094Y016192D02*
X021906Y016192D01*
X021991Y016033D02*
X023009Y016033D01*
X023009Y015875D02*
X021991Y015875D01*
X021991Y015716D02*
X023009Y015716D01*
X023009Y015558D02*
X021991Y015558D01*
X021922Y015399D02*
X023078Y015399D01*
X022514Y009835D02*
X022470Y009791D01*
X022470Y009637D01*
X022482Y009625D01*
X022484Y009628D01*
X022518Y009661D01*
X022559Y009685D01*
X022604Y009697D01*
X022766Y009697D01*
X022766Y009340D01*
X022766Y009376D02*
X022766Y009376D01*
X022766Y009218D02*
X022766Y009218D01*
X022766Y009059D02*
X022766Y009059D01*
X022766Y009535D02*
X022766Y009535D01*
X022766Y009693D02*
X022766Y009693D01*
X022943Y009693D02*
X027500Y009693D01*
X027500Y009535D02*
X023084Y009535D01*
X022589Y009693D02*
X022470Y009693D01*
X018974Y007474D02*
X018722Y007474D01*
X016959Y008108D02*
X016799Y008108D01*
X016799Y007950D02*
X015266Y007950D01*
X015266Y007791D02*
X015106Y007791D01*
X015106Y007633D02*
X015266Y007633D01*
X015266Y007474D02*
X015106Y007474D01*
X015811Y007474D02*
X016254Y007474D01*
X016227Y007633D02*
X015839Y007633D01*
X015839Y007791D02*
X016227Y007791D01*
X016227Y008108D02*
X015839Y008108D01*
X015839Y008267D02*
X016227Y008267D01*
X016260Y008425D02*
X015805Y008425D01*
X016799Y008425D02*
X016959Y008425D01*
X016959Y008267D02*
X016799Y008267D01*
X015324Y006840D02*
X015324Y006840D01*
X015324Y006682D02*
X015324Y006682D01*
X013767Y006365D02*
X013691Y006365D01*
X013691Y006206D02*
X013767Y006206D01*
X013313Y006682D02*
X011000Y006682D01*
X011000Y006840D02*
X013341Y006840D01*
X013394Y006999D02*
X013077Y006999D01*
X012373Y007950D02*
X011000Y007950D01*
X011000Y008108D02*
X012270Y008108D01*
X012276Y008267D02*
X011000Y008267D01*
X011000Y008425D02*
X012387Y008425D01*
X006289Y002402D02*
X029322Y002402D01*
X029164Y002244D02*
X006591Y002244D01*
X006750Y002085D02*
X029005Y002085D01*
X028847Y001927D02*
X025823Y001927D01*
X025720Y002030D02*
X025280Y002030D01*
X025000Y001750D01*
X024720Y002030D01*
X024280Y002030D01*
X024000Y001750D01*
X023720Y002030D01*
X023280Y002030D01*
X023000Y001750D01*
X022720Y002030D01*
X022280Y002030D01*
X022000Y001750D01*
X021720Y002030D01*
X021280Y002030D01*
X021000Y001750D01*
X020720Y002030D01*
X020280Y002030D01*
X019970Y001720D01*
X019970Y001280D01*
X020280Y000970D01*
X020720Y000970D01*
X021000Y001250D01*
X021280Y000970D01*
X021720Y000970D01*
X022000Y001250D01*
X022280Y000970D01*
X022720Y000970D01*
X023000Y001250D01*
X023280Y000970D01*
X023720Y000970D01*
X024000Y001250D01*
X024280Y000970D01*
X024720Y000970D01*
X025000Y001250D01*
X025280Y000970D01*
X025720Y000970D01*
X026030Y001280D01*
X026030Y001720D01*
X025720Y002030D01*
X025982Y001768D02*
X028688Y001768D01*
X028530Y001610D02*
X026030Y001610D01*
X026030Y001451D02*
X028371Y001451D01*
X028213Y001293D02*
X026030Y001293D01*
X025884Y001134D02*
X028054Y001134D01*
X027896Y000976D02*
X025725Y000976D01*
X025275Y000976D02*
X024725Y000976D01*
X024884Y001134D02*
X025116Y001134D01*
X025018Y001768D02*
X024982Y001768D01*
X024823Y001927D02*
X025177Y001927D01*
X024177Y001927D02*
X023823Y001927D01*
X023982Y001768D02*
X024018Y001768D01*
X024116Y001134D02*
X023884Y001134D01*
X023725Y000976D02*
X024275Y000976D01*
X023275Y000976D02*
X022725Y000976D01*
X022884Y001134D02*
X023116Y001134D01*
X023018Y001768D02*
X022982Y001768D01*
X022823Y001927D02*
X023177Y001927D01*
X022177Y001927D02*
X021823Y001927D01*
X021982Y001768D02*
X022018Y001768D01*
X022116Y001134D02*
X021884Y001134D01*
X021725Y000976D02*
X022275Y000976D01*
X021275Y000976D02*
X020725Y000976D01*
X020884Y001134D02*
X021116Y001134D01*
X021018Y001768D02*
X020982Y001768D01*
X020823Y001927D02*
X021177Y001927D01*
X020177Y001927D02*
X018823Y001927D01*
X018720Y002030D02*
X018280Y002030D01*
X018000Y001750D01*
X017720Y002030D01*
X017280Y002030D01*
X017000Y001750D01*
X016720Y002030D01*
X016280Y002030D01*
X015986Y001735D01*
X015711Y002010D01*
X015518Y002010D01*
X015518Y001518D01*
X015482Y001518D01*
X015482Y002010D01*
X015289Y002010D01*
X015014Y001735D01*
X014720Y002030D01*
X014280Y002030D01*
X014000Y001750D01*
X013720Y002030D01*
X013280Y002030D01*
X013000Y001750D01*
X012720Y002030D01*
X012280Y002030D01*
X012000Y001750D01*
X011720Y002030D01*
X011280Y002030D01*
X010970Y001720D01*
X010970Y001280D01*
X011280Y000970D01*
X011720Y000970D01*
X012000Y001250D01*
X012280Y000970D01*
X012720Y000970D01*
X013000Y001250D01*
X013280Y000970D01*
X013720Y000970D01*
X014000Y001250D01*
X014280Y000970D01*
X014720Y000970D01*
X015014Y001265D01*
X015289Y000990D01*
X015482Y000990D01*
X015482Y001482D01*
X015518Y001482D01*
X015518Y000990D01*
X015711Y000990D01*
X015986Y001265D01*
X016280Y000970D01*
X016720Y000970D01*
X017000Y001250D01*
X017280Y000970D01*
X017720Y000970D01*
X018000Y001250D01*
X018280Y000970D01*
X018720Y000970D01*
X019030Y001280D01*
X019030Y001720D01*
X018720Y002030D01*
X018982Y001768D02*
X020018Y001768D01*
X019970Y001610D02*
X019030Y001610D01*
X019030Y001451D02*
X019970Y001451D01*
X019970Y001293D02*
X019030Y001293D01*
X018884Y001134D02*
X020116Y001134D01*
X020275Y000976D02*
X018725Y000976D01*
X018275Y000976D02*
X017725Y000976D01*
X017884Y001134D02*
X018116Y001134D01*
X017275Y000976D02*
X016725Y000976D01*
X016884Y001134D02*
X017116Y001134D01*
X017018Y001768D02*
X016982Y001768D01*
X016823Y001927D02*
X017177Y001927D01*
X017823Y001927D02*
X018177Y001927D01*
X018018Y001768D02*
X017982Y001768D01*
X016177Y001927D02*
X015795Y001927D01*
X015953Y001768D02*
X016018Y001768D01*
X015518Y001768D02*
X015482Y001768D01*
X015482Y001610D02*
X015518Y001610D01*
X015518Y001451D02*
X015482Y001451D01*
X015482Y001293D02*
X015518Y001293D01*
X015518Y001134D02*
X015482Y001134D01*
X015145Y001134D02*
X014884Y001134D01*
X014725Y000976D02*
X016275Y000976D01*
X016116Y001134D02*
X015855Y001134D01*
X015518Y001927D02*
X015482Y001927D01*
X015205Y001927D02*
X014823Y001927D01*
X014982Y001768D02*
X015047Y001768D01*
X014177Y001927D02*
X013823Y001927D01*
X013982Y001768D02*
X014018Y001768D01*
X014116Y001134D02*
X013884Y001134D01*
X013725Y000976D02*
X014275Y000976D01*
X013275Y000976D02*
X012725Y000976D01*
X012884Y001134D02*
X013116Y001134D01*
X013018Y001768D02*
X012982Y001768D01*
X012823Y001927D02*
X013177Y001927D01*
X012177Y001927D02*
X011823Y001927D01*
X011982Y001768D02*
X012018Y001768D01*
X012116Y001134D02*
X011884Y001134D01*
X011725Y000976D02*
X012275Y000976D01*
X011275Y000976D02*
X006804Y000976D01*
X006870Y001134D02*
X011116Y001134D01*
X010970Y001293D02*
X006936Y001293D01*
X006944Y001451D02*
X010970Y001451D01*
X010970Y001610D02*
X006944Y001610D01*
X006910Y001768D02*
X011018Y001768D01*
X011177Y001927D02*
X006845Y001927D01*
X022200Y005180D02*
X022205Y005191D01*
X022635Y005191D02*
X022694Y005190D01*
X023650Y005194D02*
X023660Y005190D01*
D28*
X023350Y004820D03*
X022530Y004820D03*
X021900Y004810D03*
X021270Y004810D03*
X020630Y004810D03*
X019980Y004810D03*
X019380Y004810D03*
X018770Y004810D03*
X018210Y004810D03*
X017630Y004810D03*
X017150Y005060D03*
X016880Y005500D03*
X016850Y006010D03*
X016270Y006140D03*
X015800Y006140D03*
X015320Y006140D03*
X015630Y005510D03*
X014650Y004560D03*
X014060Y003750D03*
X012640Y004800D03*
X013290Y005510D03*
X013720Y006140D03*
X013360Y006500D03*
X012530Y006370D03*
X011650Y005690D03*
X011530Y007100D03*
X011480Y008000D03*
X012560Y008180D03*
X013360Y008640D03*
X014100Y008650D03*
X014360Y007930D03*
X014900Y007430D03*
X015460Y007430D03*
X015320Y006870D03*
X015800Y006870D03*
X016270Y006870D03*
X016740Y006870D03*
X017210Y006960D03*
X017170Y007430D03*
X016610Y007440D03*
X017690Y006880D03*
X017900Y007220D03*
X018760Y006970D03*
X018710Y006510D03*
X018330Y006140D03*
X017580Y006010D03*
X017680Y005590D03*
X018200Y005550D03*
X018770Y005550D03*
X019360Y005550D03*
X019970Y005560D03*
X020620Y005550D03*
X021260Y005550D03*
X021800Y005550D03*
X022200Y006060D03*
X022610Y005560D03*
X023240Y005560D03*
X023650Y006060D03*
X024060Y005560D03*
X024730Y005560D03*
X025360Y005560D03*
X026030Y005560D03*
X026740Y005560D03*
X026730Y004830D03*
X026010Y004830D03*
X025350Y004830D03*
X024710Y004830D03*
X024040Y004830D03*
X024823Y003847D03*
X022763Y003847D03*
X020432Y003847D03*
X018120Y003769D03*
X015882Y003898D03*
X011550Y003990D03*
X014330Y007170D03*
X014880Y008850D03*
X015480Y008850D03*
X016590Y008850D03*
X017180Y008850D03*
X017690Y008430D03*
X017710Y009410D03*
X017720Y010360D03*
X017190Y010260D03*
X016600Y010260D03*
X015480Y010270D03*
X014910Y010270D03*
X014100Y010070D03*
X014100Y010540D03*
X014100Y011010D03*
X014430Y011550D03*
X015120Y011550D03*
X016050Y011570D03*
X016880Y011570D03*
X017680Y011850D03*
X017970Y011490D03*
X018710Y011490D03*
X018700Y011010D03*
X017970Y011000D03*
X019516Y011892D03*
X018720Y012220D03*
X018330Y012590D03*
X017690Y012580D03*
X017334Y013947D03*
X015330Y012590D03*
X014380Y012590D03*
X014150Y013170D03*
X013730Y012590D03*
X012610Y011770D03*
X012520Y010830D03*
X011280Y010770D03*
X011290Y009670D03*
X012620Y009870D03*
X014330Y009370D03*
X011410Y012430D03*
X012030Y013420D03*
X013180Y013870D03*
X012310Y014710D03*
X011370Y014410D03*
X014760Y014800D03*
X014790Y013520D03*
X017170Y017100D03*
X016900Y017860D03*
X016158Y017742D03*
X014900Y017570D03*
X014510Y018110D03*
X012340Y017100D03*
X011540Y017610D03*
X018490Y018600D03*
X019500Y018570D03*
X022290Y017570D03*
X020270Y015790D03*
X020069Y011163D03*
X021147Y010718D03*
X023140Y009340D03*
X024923Y009207D03*
X026278Y009081D03*
X027410Y008736D03*
X027410Y008060D03*
X027410Y007430D03*
X027410Y006800D03*
X027430Y006180D03*
X028090Y006170D03*
X028720Y006170D03*
X029240Y006170D03*
X029980Y006170D03*
X029900Y005500D03*
X029521Y005024D03*
X028990Y005590D03*
X028880Y004830D03*
X028200Y004830D03*
X027450Y004830D03*
X027480Y005560D03*
X028210Y005560D03*
X026351Y006548D03*
X026044Y007764D03*
X024868Y006612D03*
X023432Y007774D03*
X021619Y007532D03*
X020338Y006628D03*
X027410Y009460D03*
X027410Y010140D03*
X027430Y010740D03*
X028050Y010833D03*
X028730Y010833D03*
X029370Y010833D03*
X030010Y010833D03*
X029835Y003964D03*
X028125Y003847D03*
D29*
X019100Y005920D02*
X017531Y005920D01*
X017531Y006594D01*
X017531Y006818D01*
X017426Y006923D01*
X017001Y006923D01*
X016896Y006818D01*
X016896Y006196D01*
X016896Y006196D01*
X016896Y005920D01*
X015175Y005920D01*
X015136Y005960D01*
X015136Y006163D01*
X015169Y006196D01*
X015169Y006818D01*
X015064Y006923D01*
X014639Y006923D01*
X014615Y006899D01*
X014591Y006923D01*
X014167Y006923D01*
X014061Y006818D01*
X014061Y006196D01*
X014104Y006153D01*
X014104Y005960D01*
X014065Y005920D01*
X013110Y005920D01*
X013110Y006975D01*
X013111Y006975D01*
X013361Y006975D01*
X013419Y006918D01*
X014040Y006918D01*
X014146Y007023D01*
X014146Y007448D01*
X014122Y007472D01*
X014146Y007495D01*
X014146Y007920D01*
X014122Y007944D01*
X014146Y007968D01*
X014146Y008393D01*
X014040Y008498D01*
X013419Y008498D01*
X013361Y008440D01*
X013110Y008440D01*
X013110Y008587D01*
X013204Y008625D01*
X013325Y008746D01*
X013357Y008825D01*
X013401Y008825D01*
X013419Y008807D01*
X014040Y008807D01*
X014146Y008913D01*
X014146Y009337D01*
X014122Y009361D01*
X014146Y009385D01*
X014146Y009810D01*
X014040Y009915D01*
X013419Y009915D01*
X013393Y009890D01*
X013386Y009890D01*
X013386Y011190D01*
X013398Y011190D01*
X013419Y011170D01*
X014040Y011170D01*
X014146Y011275D01*
X014146Y011700D01*
X014040Y011805D01*
X013419Y011805D01*
X013403Y011790D01*
X013386Y011790D01*
X013386Y012930D01*
X014610Y012930D01*
X014610Y012603D01*
X014534Y012526D01*
X014534Y011905D01*
X014639Y011799D01*
X015064Y011799D01*
X015169Y011905D01*
X015169Y012526D01*
X015090Y012606D01*
X015090Y012791D01*
X015139Y012840D01*
X015348Y012840D01*
X015436Y012877D01*
X015489Y012930D01*
X015563Y012930D01*
X015550Y012898D01*
X015550Y012598D01*
X015479Y012526D01*
X015479Y011905D01*
X015584Y011799D01*
X016009Y011799D01*
X016033Y011823D01*
X016056Y011799D01*
X016481Y011799D01*
X016505Y011823D01*
X016529Y011799D01*
X016954Y011799D01*
X016977Y011823D01*
X017001Y011799D01*
X017426Y011799D01*
X017531Y011905D01*
X017531Y012526D01*
X017460Y012598D01*
X017460Y012930D01*
X019100Y012930D01*
X019100Y010980D01*
X018966Y010925D01*
X018845Y010804D01*
X018845Y010802D01*
X018704Y010802D01*
X018646Y010860D01*
X018025Y010860D01*
X017919Y010755D01*
X017919Y010330D01*
X017943Y010306D01*
X017919Y010282D01*
X017919Y009858D01*
X017943Y009834D01*
X017919Y009810D01*
X017919Y009385D01*
X017943Y009361D01*
X017919Y009337D01*
X017919Y008913D01*
X017943Y008889D01*
X017919Y008865D01*
X017919Y008440D01*
X017943Y008416D01*
X017919Y008393D01*
X017919Y007968D01*
X017943Y007944D01*
X017919Y007920D01*
X017919Y007495D01*
X018025Y007390D01*
X018646Y007390D01*
X018704Y007448D01*
X018944Y007448D01*
X019046Y007345D01*
X019100Y007323D01*
X019100Y005920D01*
X019100Y005986D02*
X017531Y005986D01*
X017531Y006224D02*
X019100Y006224D01*
X019100Y006463D02*
X017531Y006463D01*
X017531Y006594D02*
X017531Y006594D01*
X017531Y006701D02*
X019100Y006701D01*
X019100Y006940D02*
X014062Y006940D01*
X014146Y007178D02*
X019100Y007178D01*
X018975Y007417D02*
X018673Y007417D01*
X018340Y007230D02*
X018760Y006970D01*
X018710Y006510D02*
X018340Y006510D01*
X017700Y006510D01*
X018340Y006460D02*
X018340Y006140D01*
X018330Y006140D01*
X018336Y007235D02*
X017960Y007235D01*
X017900Y007220D01*
X017998Y007417D02*
X014146Y007417D01*
X014146Y007655D02*
X017919Y007655D01*
X017919Y007894D02*
X014146Y007894D01*
X014146Y008132D02*
X017919Y008132D01*
X017919Y008371D02*
X014146Y008371D01*
X014100Y008650D02*
X013830Y008650D01*
X013729Y008653D02*
X013373Y008653D01*
X013360Y008640D01*
X013164Y008609D02*
X017919Y008609D01*
X017919Y008848D02*
X014080Y008848D01*
X014146Y009086D02*
X017919Y009086D01*
X017919Y009325D02*
X014146Y009325D01*
X014146Y009563D02*
X017919Y009563D01*
X017919Y009802D02*
X014146Y009802D01*
X014100Y010070D02*
X013730Y010070D01*
X013386Y010040D02*
X017919Y010040D01*
X017919Y010279D02*
X013386Y010279D01*
X013386Y010517D02*
X017919Y010517D01*
X017920Y010756D02*
X013386Y010756D01*
X013386Y010994D02*
X019100Y010994D01*
X019100Y011233D02*
X014103Y011233D01*
X014146Y011471D02*
X019100Y011471D01*
X019100Y011710D02*
X014136Y011710D01*
X013729Y011490D02*
X013086Y011490D01*
X013086Y009598D01*
X013086Y009590D02*
X013729Y009590D01*
X013729Y009125D02*
X013095Y009125D01*
X012960Y008990D01*
X014910Y007944D02*
X014910Y007430D01*
X014910Y007944D02*
X015186Y007944D01*
X015460Y007944D01*
X015460Y007430D01*
X015169Y006701D02*
X016896Y006701D01*
X016740Y006870D02*
X016740Y006530D01*
X016896Y006463D02*
X015169Y006463D01*
X015324Y006507D02*
X015324Y006144D01*
X015320Y006140D01*
X015169Y006224D02*
X016896Y006224D01*
X016896Y005986D02*
X015136Y005986D01*
X015796Y006144D02*
X015800Y006140D01*
X015796Y006144D02*
X015796Y006507D01*
X016269Y006507D02*
X016269Y006141D01*
X016270Y006140D01*
X016610Y007440D02*
X016610Y007675D01*
X016879Y007944D01*
X017170Y007944D01*
X017170Y007430D01*
X014061Y006701D02*
X013110Y006701D01*
X013110Y006463D02*
X014061Y006463D01*
X014061Y006224D02*
X013110Y006224D01*
X013110Y005986D02*
X014104Y005986D01*
X013729Y006500D02*
X013360Y006500D01*
X013729Y006500D02*
X013729Y006507D01*
X013397Y006940D02*
X013110Y006940D01*
X013710Y010540D02*
X014100Y010540D01*
X013086Y011490D02*
X013086Y013091D01*
X012724Y013453D01*
X012724Y014240D01*
X012724Y015102D01*
X012716Y015110D01*
X012244Y015110D02*
X012244Y014776D01*
X012310Y014710D01*
X013386Y012902D02*
X014610Y012902D01*
X014610Y012664D02*
X013386Y012664D01*
X013386Y012425D02*
X014534Y012425D01*
X014379Y012589D02*
X014379Y012216D01*
X014534Y012187D02*
X013386Y012187D01*
X013386Y011948D02*
X014534Y011948D01*
X015169Y011948D02*
X015479Y011948D01*
X015479Y012187D02*
X015169Y012187D01*
X015324Y012216D02*
X015324Y012584D01*
X015330Y012590D01*
X015479Y012425D02*
X015169Y012425D01*
X015090Y012664D02*
X015550Y012664D01*
X015552Y012902D02*
X015461Y012902D01*
X014380Y012590D02*
X014379Y012589D01*
X013730Y012590D02*
X013729Y012589D01*
X013729Y012216D01*
X017460Y012664D02*
X019100Y012664D01*
X019100Y012902D02*
X017460Y012902D01*
X017690Y012580D02*
X017686Y012576D01*
X017686Y012216D01*
X017531Y012187D02*
X019100Y012187D01*
X019100Y012425D02*
X017531Y012425D01*
X017531Y011948D02*
X019100Y011948D01*
X018700Y011500D02*
X018710Y011490D01*
X018700Y011500D02*
X018500Y011500D01*
X018336Y011015D02*
X018695Y011015D01*
X018700Y011010D01*
X018336Y012216D02*
X018336Y012584D01*
X018330Y012590D01*
D30*
X018336Y012216D02*
X018500Y012000D01*
X018500Y011500D02*
X018336Y011487D01*
X018336Y011015D02*
X018500Y011000D01*
X018336Y009598D02*
X018500Y009500D01*
X019500Y009500D01*
X019280Y009590D01*
X018500Y006500D02*
X018336Y006507D01*
D31*
X021090Y011500D02*
X025550Y011500D01*
X026060Y011990D02*
X026550Y011500D01*
X026060Y011990D02*
X021050Y011990D01*
X017170Y015870D01*
X016640Y015870D01*
X015902Y016608D01*
X015902Y017102D01*
X015646Y017102D02*
X015646Y016394D01*
X016420Y015620D01*
X016970Y015620D01*
X021090Y011500D01*
X021010Y012500D02*
X025550Y012500D01*
X021010Y012500D02*
X017380Y016130D01*
X016820Y016130D01*
X016414Y016536D01*
X016414Y017102D01*
X016670Y017102D02*
X016670Y017102D01*
X016670Y017630D01*
X016900Y017860D01*
X016158Y017742D02*
X016158Y017102D01*
X015390Y017102D02*
X015390Y017102D01*
X015390Y017650D01*
X015134Y017336D02*
X014900Y017570D01*
X015134Y017336D02*
X015134Y017102D01*
X014924Y018110D02*
X014510Y018110D01*
X016926Y017102D02*
X017170Y017102D01*
X017170Y017100D01*
X016762Y015350D02*
X015531Y015350D01*
X015390Y015209D01*
X015390Y014798D01*
X015390Y014240D01*
X012724Y014240D01*
X014760Y014800D02*
X015133Y014800D01*
X015390Y014798D02*
X015390Y013914D01*
X015266Y013790D01*
X015260Y013784D01*
X015646Y013426D02*
X015300Y013080D01*
X015040Y013080D01*
X014850Y012890D01*
X014850Y012217D01*
X014851Y012216D01*
X015790Y012222D02*
X015790Y012850D01*
X015902Y012962D01*
X015902Y014798D01*
X015646Y014798D02*
X015646Y013426D01*
X016158Y013002D02*
X016270Y012890D01*
X016270Y012217D01*
X016269Y012216D01*
X015796Y012216D02*
X015790Y012222D01*
X016740Y012217D02*
X016741Y012216D01*
X016740Y012217D02*
X016740Y012990D01*
X016414Y013316D01*
X016414Y014798D01*
X016670Y014798D02*
X016670Y013580D01*
X017220Y013030D01*
X017220Y012222D01*
X017214Y012216D01*
X016158Y013002D02*
X016158Y014798D01*
X016762Y015350D02*
X016920Y015192D01*
X016920Y014804D01*
X016926Y014798D01*
X024669Y018130D02*
X024676Y018123D01*
D32*
X026500Y014500D03*
X026500Y003500D03*
X006000Y001500D03*
X006500Y020500D03*
D33*
X017214Y006531D02*
X017214Y005777D01*
D34*
X017214Y005778D02*
X017215Y005732D01*
X017220Y005686D01*
X017228Y005640D01*
X017240Y005595D01*
X017256Y005552D01*
X017274Y005509D01*
X017296Y005469D01*
X017321Y005430D01*
X017349Y005393D01*
X017380Y005359D01*
X017414Y005327D01*
X017450Y005298D01*
X017488Y005271D01*
X017528Y005248D01*
X017570Y005228D01*
X017613Y005212D01*
X017657Y005198D01*
X017702Y005189D01*
X017748Y005183D01*
X017794Y005180D01*
X019864Y005180D01*
X020336Y005180D02*
X022200Y005180D01*
X022205Y005191D02*
X022635Y005191D01*
X023166Y005190D02*
X023660Y005190D01*
X023650Y005194D02*
X028883Y005194D01*
X028935Y005196D01*
X028986Y005201D01*
X029038Y005211D01*
X029088Y005223D01*
X029137Y005240D01*
X029185Y005260D01*
X029231Y005283D01*
X029276Y005309D01*
X029319Y005339D01*
X029359Y005372D01*
X029397Y005407D01*
X029432Y005445D01*
X029465Y005485D01*
X029495Y005528D01*
X029521Y005573D01*
X029544Y005619D01*
X029564Y005667D01*
X029581Y005716D01*
X029593Y005766D01*
X029603Y005818D01*
X029608Y005869D01*
X029610Y005921D01*
X029610Y006900D01*
M02*
