G75*
G70*
%OFA0B0*%
%FSLAX24Y24*%
%IPPOS*%
%LPD*%
%AMOC8*
5,1,8,0,0,1.08239X$1,22.5*
%
%ADD10C,0.0000*%
D10*
X000500Y000500D02*
X000500Y021500D01*
X025900Y021500D01*
X026500Y020900D01*
X026500Y018400D01*
X030500Y014400D01*
X030500Y003000D01*
X028000Y000500D01*
X000500Y000500D01*
X005375Y001500D02*
X005377Y001550D01*
X005383Y001599D01*
X005393Y001648D01*
X005406Y001695D01*
X005424Y001742D01*
X005445Y001787D01*
X005469Y001830D01*
X005497Y001871D01*
X005528Y001910D01*
X005562Y001946D01*
X005599Y001980D01*
X005639Y002010D01*
X005680Y002037D01*
X005724Y002061D01*
X005769Y002081D01*
X005816Y002097D01*
X005864Y002110D01*
X005913Y002119D01*
X005963Y002124D01*
X006012Y002125D01*
X006062Y002122D01*
X006111Y002115D01*
X006160Y002104D01*
X006207Y002090D01*
X006253Y002071D01*
X006298Y002049D01*
X006341Y002024D01*
X006381Y001995D01*
X006419Y001963D01*
X006455Y001929D01*
X006488Y001891D01*
X006517Y001851D01*
X006543Y001809D01*
X006566Y001765D01*
X006585Y001719D01*
X006601Y001672D01*
X006613Y001623D01*
X006621Y001574D01*
X006625Y001525D01*
X006625Y001475D01*
X006621Y001426D01*
X006613Y001377D01*
X006601Y001328D01*
X006585Y001281D01*
X006566Y001235D01*
X006543Y001191D01*
X006517Y001149D01*
X006488Y001109D01*
X006455Y001071D01*
X006419Y001037D01*
X006381Y001005D01*
X006341Y000976D01*
X006298Y000951D01*
X006253Y000929D01*
X006207Y000910D01*
X006160Y000896D01*
X006111Y000885D01*
X006062Y000878D01*
X006012Y000875D01*
X005963Y000876D01*
X005913Y000881D01*
X005864Y000890D01*
X005816Y000903D01*
X005769Y000919D01*
X005724Y000939D01*
X005680Y000963D01*
X005639Y000990D01*
X005599Y001020D01*
X005562Y001054D01*
X005528Y001090D01*
X005497Y001129D01*
X005469Y001170D01*
X005445Y001213D01*
X005424Y001258D01*
X005406Y001305D01*
X005393Y001352D01*
X005383Y001401D01*
X005377Y001450D01*
X005375Y001500D01*
X025875Y003500D02*
X025877Y003550D01*
X025883Y003599D01*
X025893Y003648D01*
X025906Y003695D01*
X025924Y003742D01*
X025945Y003787D01*
X025969Y003830D01*
X025997Y003871D01*
X026028Y003910D01*
X026062Y003946D01*
X026099Y003980D01*
X026139Y004010D01*
X026180Y004037D01*
X026224Y004061D01*
X026269Y004081D01*
X026316Y004097D01*
X026364Y004110D01*
X026413Y004119D01*
X026463Y004124D01*
X026512Y004125D01*
X026562Y004122D01*
X026611Y004115D01*
X026660Y004104D01*
X026707Y004090D01*
X026753Y004071D01*
X026798Y004049D01*
X026841Y004024D01*
X026881Y003995D01*
X026919Y003963D01*
X026955Y003929D01*
X026988Y003891D01*
X027017Y003851D01*
X027043Y003809D01*
X027066Y003765D01*
X027085Y003719D01*
X027101Y003672D01*
X027113Y003623D01*
X027121Y003574D01*
X027125Y003525D01*
X027125Y003475D01*
X027121Y003426D01*
X027113Y003377D01*
X027101Y003328D01*
X027085Y003281D01*
X027066Y003235D01*
X027043Y003191D01*
X027017Y003149D01*
X026988Y003109D01*
X026955Y003071D01*
X026919Y003037D01*
X026881Y003005D01*
X026841Y002976D01*
X026798Y002951D01*
X026753Y002929D01*
X026707Y002910D01*
X026660Y002896D01*
X026611Y002885D01*
X026562Y002878D01*
X026512Y002875D01*
X026463Y002876D01*
X026413Y002881D01*
X026364Y002890D01*
X026316Y002903D01*
X026269Y002919D01*
X026224Y002939D01*
X026180Y002963D01*
X026139Y002990D01*
X026099Y003020D01*
X026062Y003054D01*
X026028Y003090D01*
X025997Y003129D01*
X025969Y003170D01*
X025945Y003213D01*
X025924Y003258D01*
X025906Y003305D01*
X025893Y003352D01*
X025883Y003401D01*
X025877Y003450D01*
X025875Y003500D01*
X025875Y014500D02*
X025877Y014550D01*
X025883Y014599D01*
X025893Y014648D01*
X025906Y014695D01*
X025924Y014742D01*
X025945Y014787D01*
X025969Y014830D01*
X025997Y014871D01*
X026028Y014910D01*
X026062Y014946D01*
X026099Y014980D01*
X026139Y015010D01*
X026180Y015037D01*
X026224Y015061D01*
X026269Y015081D01*
X026316Y015097D01*
X026364Y015110D01*
X026413Y015119D01*
X026463Y015124D01*
X026512Y015125D01*
X026562Y015122D01*
X026611Y015115D01*
X026660Y015104D01*
X026707Y015090D01*
X026753Y015071D01*
X026798Y015049D01*
X026841Y015024D01*
X026881Y014995D01*
X026919Y014963D01*
X026955Y014929D01*
X026988Y014891D01*
X027017Y014851D01*
X027043Y014809D01*
X027066Y014765D01*
X027085Y014719D01*
X027101Y014672D01*
X027113Y014623D01*
X027121Y014574D01*
X027125Y014525D01*
X027125Y014475D01*
X027121Y014426D01*
X027113Y014377D01*
X027101Y014328D01*
X027085Y014281D01*
X027066Y014235D01*
X027043Y014191D01*
X027017Y014149D01*
X026988Y014109D01*
X026955Y014071D01*
X026919Y014037D01*
X026881Y014005D01*
X026841Y013976D01*
X026798Y013951D01*
X026753Y013929D01*
X026707Y013910D01*
X026660Y013896D01*
X026611Y013885D01*
X026562Y013878D01*
X026512Y013875D01*
X026463Y013876D01*
X026413Y013881D01*
X026364Y013890D01*
X026316Y013903D01*
X026269Y013919D01*
X026224Y013939D01*
X026180Y013963D01*
X026139Y013990D01*
X026099Y014020D01*
X026062Y014054D01*
X026028Y014090D01*
X025997Y014129D01*
X025969Y014170D01*
X025945Y014213D01*
X025924Y014258D01*
X025906Y014305D01*
X025893Y014352D01*
X025883Y014401D01*
X025877Y014450D01*
X025875Y014500D01*
X005875Y020500D02*
X005877Y020550D01*
X005883Y020599D01*
X005893Y020648D01*
X005906Y020695D01*
X005924Y020742D01*
X005945Y020787D01*
X005969Y020830D01*
X005997Y020871D01*
X006028Y020910D01*
X006062Y020946D01*
X006099Y020980D01*
X006139Y021010D01*
X006180Y021037D01*
X006224Y021061D01*
X006269Y021081D01*
X006316Y021097D01*
X006364Y021110D01*
X006413Y021119D01*
X006463Y021124D01*
X006512Y021125D01*
X006562Y021122D01*
X006611Y021115D01*
X006660Y021104D01*
X006707Y021090D01*
X006753Y021071D01*
X006798Y021049D01*
X006841Y021024D01*
X006881Y020995D01*
X006919Y020963D01*
X006955Y020929D01*
X006988Y020891D01*
X007017Y020851D01*
X007043Y020809D01*
X007066Y020765D01*
X007085Y020719D01*
X007101Y020672D01*
X007113Y020623D01*
X007121Y020574D01*
X007125Y020525D01*
X007125Y020475D01*
X007121Y020426D01*
X007113Y020377D01*
X007101Y020328D01*
X007085Y020281D01*
X007066Y020235D01*
X007043Y020191D01*
X007017Y020149D01*
X006988Y020109D01*
X006955Y020071D01*
X006919Y020037D01*
X006881Y020005D01*
X006841Y019976D01*
X006798Y019951D01*
X006753Y019929D01*
X006707Y019910D01*
X006660Y019896D01*
X006611Y019885D01*
X006562Y019878D01*
X006512Y019875D01*
X006463Y019876D01*
X006413Y019881D01*
X006364Y019890D01*
X006316Y019903D01*
X006269Y019919D01*
X006224Y019939D01*
X006180Y019963D01*
X006139Y019990D01*
X006099Y020020D01*
X006062Y020054D01*
X006028Y020090D01*
X005997Y020129D01*
X005969Y020170D01*
X005945Y020213D01*
X005924Y020258D01*
X005906Y020305D01*
X005893Y020352D01*
X005883Y020401D01*
X005877Y020450D01*
X005875Y020500D01*
M02*
