G75*
G70*
%OFA0B0*%
%FSLAX24Y24*%
%IPPOS*%
%LPD*%
%AMOC8*
5,1,8,0,0,1.08239X$1,22.5*
%
%ADD10C,0.0580*%
%ADD11R,0.0356X0.0434*%
%ADD12R,0.0434X0.0356*%
%ADD13R,0.0444X0.0371*%
%ADD14OC8,0.0680*%
%ADD15R,0.0371X0.0444*%
%ADD16R,0.0297X0.0552*%
%ADD17R,0.0177X0.0531*%
%ADD18R,0.0552X0.0356*%
%ADD19R,0.0356X0.0552*%
%ADD20R,0.1025X0.0828*%
%ADD21R,0.0552X0.0552*%
%ADD22R,0.0671X0.0474*%
%ADD23R,0.1340X0.0552*%
%ADD24R,0.0474X0.0631*%
%ADD25R,0.0671X0.0671*%
%ADD26OC8,0.0740*%
%ADD27C,0.1568*%
D10*
X012960Y008990D03*
X019210Y010560D03*
X019280Y009590D03*
X019290Y008650D03*
X019290Y007710D03*
D11*
X022254Y009340D03*
X022766Y009340D03*
X022236Y010070D03*
X021724Y010070D03*
X014876Y005650D03*
X014364Y005650D03*
X024164Y017310D03*
X024676Y017310D03*
D12*
X019500Y017564D03*
X019500Y018076D03*
X018500Y018096D03*
X018500Y017584D03*
X012780Y007726D03*
X012780Y007214D03*
D13*
X012614Y009590D03*
X013086Y009590D03*
X013086Y011490D03*
X012614Y011490D03*
X014794Y013790D03*
X015266Y013790D03*
X012716Y015110D03*
X012244Y015110D03*
X014924Y018110D03*
X015396Y018110D03*
X019864Y005180D03*
X020336Y005180D03*
X022694Y005190D03*
X023166Y005190D03*
D14*
X025550Y010500D03*
X026550Y010500D03*
X026550Y011500D03*
X025550Y011500D03*
X025550Y012500D03*
X026550Y012500D03*
D15*
X023650Y005666D03*
X023650Y005194D03*
X022205Y005191D03*
X022205Y005663D03*
X011540Y016814D03*
X011540Y017286D03*
D16*
X011966Y016692D03*
X012340Y016692D03*
X012714Y016692D03*
X012714Y015668D03*
X011966Y015668D03*
D17*
X015134Y014798D03*
X015390Y014798D03*
X015646Y014798D03*
X015902Y014798D03*
X016158Y014798D03*
X016414Y014798D03*
X016670Y014798D03*
X016926Y014798D03*
X016926Y017102D03*
X016670Y017102D03*
X016414Y017102D03*
X016158Y017102D03*
X015902Y017102D03*
X015646Y017102D03*
X015390Y017102D03*
X015134Y017102D03*
D18*
X013729Y011487D03*
X013729Y011015D03*
X013729Y010542D03*
X013729Y010070D03*
X013729Y009598D03*
X013729Y009125D03*
X013729Y008653D03*
X013729Y008180D03*
X013729Y007708D03*
X013729Y007235D03*
X018336Y007235D03*
X018336Y007708D03*
X018336Y008180D03*
X018336Y008653D03*
X018336Y009125D03*
X018336Y009598D03*
X018336Y010070D03*
X018336Y010542D03*
X018336Y011015D03*
X018336Y011487D03*
D19*
X017686Y012216D03*
X017214Y012216D03*
X016741Y012216D03*
X016269Y012216D03*
X015796Y012216D03*
X015324Y012216D03*
X014851Y012216D03*
X014379Y012216D03*
X014379Y006507D03*
X014851Y006507D03*
X015324Y006507D03*
X015796Y006507D03*
X016269Y006507D03*
X016741Y006507D03*
X017214Y006507D03*
X017686Y006507D03*
D20*
X016879Y007944D03*
X015186Y007944D03*
X015186Y009361D03*
X015186Y010779D03*
X016879Y010779D03*
X016879Y009361D03*
D21*
X018336Y006507D03*
X013729Y006507D03*
X013729Y012216D03*
X018336Y012216D03*
D22*
X029610Y010050D03*
X029610Y006900D03*
D23*
X023839Y014213D03*
X023839Y015787D03*
X021161Y015787D03*
X021161Y014213D03*
D24*
X021126Y017567D03*
X021874Y017567D03*
X021500Y018433D03*
D25*
X023291Y018130D03*
X024669Y018130D03*
D26*
X024500Y020500D03*
X025500Y020500D03*
X023500Y020500D03*
X022500Y020500D03*
X021500Y020500D03*
X020500Y020500D03*
X019500Y020500D03*
X018500Y020500D03*
X016900Y020500D03*
X015900Y020500D03*
X014900Y020500D03*
X013900Y020500D03*
X012900Y020500D03*
X011900Y020500D03*
X010900Y020500D03*
X009900Y020500D03*
X008900Y020500D03*
X007900Y020500D03*
X011500Y001500D03*
X012500Y001500D03*
X013500Y001500D03*
X014500Y001500D03*
X015500Y001500D03*
X016500Y001500D03*
X017500Y001500D03*
X018500Y001500D03*
X020500Y001500D03*
X021500Y001500D03*
X022500Y001500D03*
X023500Y001500D03*
X024500Y001500D03*
X025500Y001500D03*
D27*
X006000Y001500D03*
X026500Y003500D03*
X026500Y014500D03*
X006500Y020500D03*
M02*
