%
M48
M72
T01C0.0150
T02C0.0394
T03C0.0400
T04C0.1250
%
T01
X11550Y3990
X12640Y4800
X13290Y5510
X13720Y6140
X13360Y6500
X12530Y6370
X11650Y5690
X11530Y7100
X11480Y8000
X12560Y8180
X13360Y8640
X14100Y8650
X14360Y7930
X14900Y7430
X15460Y7430
X15320Y6870
X15800Y6870
X16270Y6870
X16740Y6870
X17210Y6960
X17170Y7430
X16610Y7440
X17690Y6880
X17900Y7220
X18760Y6970
X18710Y6510
X18330Y6140
X17580Y6010
X17680Y5590
X18200Y5550
X18770Y5550
X19360Y5550
X19970Y5560
X20620Y5550
X21260Y5550
X21800Y5550
X22200Y6060
X22610Y5560
X23240Y5560
X23650Y6060
X24060Y5560
X24730Y5560
X25360Y5560
X26030Y5560
X26740Y5560
X26730Y4830
X26010Y4830
X25350Y4830
X24710Y4830
X24040Y4830
X23350Y4820
X22530Y4820
X21900Y4810
X21270Y4810
X20630Y4810
X19980Y4810
X19380Y4810
X18770Y4810
X18210Y4810
X17630Y4810
X17150Y5060
X16880Y5500
X16850Y6010
X16270Y6140
X15800Y6140
X15320Y6140
X15630Y5510
X14650Y4560
X14060Y3750
X15882Y3898
X18120Y3769
X20432Y3847
X22763Y3847
X24823Y3847
X27450Y4830
X28200Y4830
X28880Y4830
X29521Y5024
X29900Y5500
X29980Y6170
X29240Y6170
X28720Y6170
X28090Y6170
X27430Y6180
X27410Y6800
X27410Y7430
X27410Y8060
X27410Y8736
X27410Y9460
X27410Y10140
X27430Y10740
X28050Y10833
X28730Y10833
X29370Y10833
X30010Y10833
X26278Y9081
X24923Y9207
X23140Y9340
X21147Y10718
X20069Y11163
X19516Y11892
X18720Y12220
X18330Y12590
X17690Y12580
X17680Y11850
X17970Y11490
X18710Y11490
X18700Y11010
X17970Y11000
X17720Y10360
X17190Y10260
X16600Y10260
X15480Y10270
X14910Y10270
X14100Y10070
X14100Y10540
X14100Y11010
X14430Y11550
X15120Y11550
X16050Y11570
X16880Y11570
X15330Y12590
X14380Y12590
X14150Y13170
X13730Y12590
X12610Y11770
X12520Y10830
X11280Y10770
X11290Y9670
X12620Y9870
X14330Y9370
X14880Y8850
X15480Y8850
X16590Y8850
X17180Y8850
X17690Y8430
X17710Y9410
X14330Y7170
X20338Y6628
X21619Y7532
X23432Y7774
X24868Y6612
X26351Y6548
X26044Y7764
X27480Y5560
X28210Y5560
X28990Y5590
X29835Y3964
X28125Y3847
X14790Y13520
X14760Y14800
X13180Y13870
X12310Y14710
X11370Y14410
X12030Y13420
X11410Y12430
X17334Y13947
X20270Y15790
X22290Y17570
X19500Y18570
X18490Y18600
X16900Y17860
X16158Y17742
X17170Y17100
X14900Y17570
X14510Y18110
X12340Y17100
X11540Y17610
T02
X11900Y20500
X10900Y20500
X9900Y20500
X8900Y20500
X7900Y20500
X12900Y20500
X13900Y20500
X14900Y20500
X15900Y20500
X16900Y20500
X18500Y20500
X19500Y20500
X20500Y20500
X21500Y20500
X22500Y20500
X23500Y20500
X24500Y20500
X25500Y20500
X25500Y1500
X24500Y1500
X23500Y1500
X22500Y1500
X21500Y1500
X20500Y1500
X18500Y1500
X17500Y1500
X16500Y1500
X15500Y1500
X14500Y1500
X13500Y1500
X12500Y1500
X11500Y1500
T03
X25550Y10500
X26550Y10500
X26550Y11500
X25550Y11500
X25550Y12500
X26550Y12500
T04
X6000Y1500
X26500Y3500
X26500Y14500
X6500Y20500
M30
