G75*
G70*
%OFA0B0*%
%FSLAX24Y24*%
%IPPOS*%
%LPD*%
%AMOC8*
5,1,8,0,0,1.08239X$1,22.5*
%
%ADD10R,0.2320X0.1920*%
%ADD11OC8,0.0600*%
%ADD12OC8,0.0660*%
%ADD13C,0.0310*%
%ADD14C,0.0160*%
%ADD15C,0.0120*%
%ADD16C,0.0240*%
%ADD17C,0.1487*%
D10*
X004790Y016930D03*
D11*
X025550Y012500D03*
X026550Y012500D03*
X026550Y011500D03*
X025550Y011500D03*
X025550Y010500D03*
X026550Y010500D03*
D12*
X025500Y001500D03*
X024500Y001500D03*
X023500Y001500D03*
X022500Y001500D03*
X021500Y001500D03*
X020500Y001500D03*
X018500Y001500D03*
X017500Y001500D03*
X016500Y001500D03*
X015500Y001500D03*
X014500Y001500D03*
X013500Y001500D03*
X012500Y001500D03*
X011500Y001500D03*
X011900Y020500D03*
X010900Y020500D03*
X009900Y020500D03*
X008900Y020500D03*
X007900Y020500D03*
X012900Y020500D03*
X013900Y020500D03*
X014900Y020500D03*
X015900Y020500D03*
X016900Y020500D03*
X018500Y020500D03*
X019500Y020500D03*
X020500Y020500D03*
X021500Y020500D03*
X022500Y020500D03*
X023500Y020500D03*
X024500Y020500D03*
X025500Y020500D03*
D13*
X022290Y017570D03*
X020270Y015790D03*
X017334Y013947D03*
X017690Y012580D03*
X018330Y012590D03*
X018720Y012220D03*
X018710Y011490D03*
X017970Y011490D03*
X017680Y011850D03*
X016880Y011570D03*
X016050Y011570D03*
X015120Y011550D03*
X014430Y011550D03*
X014100Y011010D03*
X014100Y010540D03*
X014100Y010070D03*
X014330Y009370D03*
X014880Y008850D03*
X015480Y008850D03*
X016590Y008850D03*
X017180Y008850D03*
X017690Y008430D03*
X017170Y007430D03*
X016610Y007440D03*
X017210Y006960D03*
X016740Y006870D03*
X016270Y006870D03*
X015800Y006870D03*
X015320Y006870D03*
X015460Y007430D03*
X014900Y007430D03*
X014330Y007170D03*
X014360Y007930D03*
X014100Y008650D03*
X013360Y008640D03*
X012560Y008180D03*
X011480Y008000D03*
X011530Y007100D03*
X012530Y006370D03*
X013360Y006500D03*
X013720Y006140D03*
X013290Y005510D03*
X012640Y004800D03*
X011650Y005690D03*
X011550Y003990D03*
X014060Y003750D03*
X014650Y004560D03*
X015630Y005510D03*
X015800Y006140D03*
X016270Y006140D03*
X016850Y006010D03*
X016880Y005500D03*
X017150Y005060D03*
X017630Y004810D03*
X018210Y004810D03*
X018770Y004810D03*
X019380Y004810D03*
X019980Y004810D03*
X020630Y004810D03*
X021270Y004810D03*
X021900Y004810D03*
X022530Y004820D03*
X023350Y004820D03*
X024040Y004830D03*
X024710Y004830D03*
X025350Y004830D03*
X026010Y004830D03*
X026730Y004830D03*
X027450Y004830D03*
X028200Y004830D03*
X028880Y004830D03*
X029521Y005024D03*
X029900Y005500D03*
X029980Y006170D03*
X029240Y006170D03*
X028720Y006170D03*
X028090Y006170D03*
X027430Y006180D03*
X027410Y006800D03*
X027410Y007430D03*
X027410Y008060D03*
X027410Y008736D03*
X027410Y009460D03*
X027410Y010140D03*
X027430Y010740D03*
X028050Y010833D03*
X028730Y010833D03*
X029370Y010833D03*
X030010Y010833D03*
X026278Y009081D03*
X024923Y009207D03*
X023140Y009340D03*
X021147Y010718D03*
X020069Y011163D03*
X019516Y011892D03*
X018700Y011010D03*
X017970Y011000D03*
X017720Y010360D03*
X017190Y010260D03*
X016600Y010260D03*
X015480Y010270D03*
X014910Y010270D03*
X012620Y009870D03*
X012520Y010830D03*
X012610Y011770D03*
X011410Y012430D03*
X012030Y013420D03*
X013180Y013870D03*
X012310Y014710D03*
X011370Y014410D03*
X013730Y012590D03*
X014380Y012590D03*
X014150Y013170D03*
X014790Y013520D03*
X015330Y012590D03*
X014760Y014800D03*
X017170Y017100D03*
X016900Y017860D03*
X016158Y017742D03*
X014900Y017570D03*
X014510Y018110D03*
X012340Y017100D03*
X011540Y017610D03*
X018490Y018600D03*
X019500Y018570D03*
X011280Y010770D03*
X011290Y009670D03*
X015320Y006140D03*
X017580Y006010D03*
X017680Y005590D03*
X018200Y005550D03*
X018770Y005550D03*
X019360Y005550D03*
X019970Y005560D03*
X020620Y005550D03*
X021260Y005550D03*
X021800Y005550D03*
X022200Y006060D03*
X022610Y005560D03*
X023240Y005560D03*
X023650Y006060D03*
X024060Y005560D03*
X024730Y005560D03*
X025360Y005560D03*
X026030Y005560D03*
X026740Y005560D03*
X027480Y005560D03*
X028210Y005560D03*
X028990Y005590D03*
X029835Y003964D03*
X028125Y003847D03*
X024823Y003847D03*
X022763Y003847D03*
X020432Y003847D03*
X018120Y003769D03*
X015882Y003898D03*
X018330Y006140D03*
X018710Y006510D03*
X018760Y006970D03*
X017900Y007220D03*
X017690Y006880D03*
X020338Y006628D03*
X021619Y007532D03*
X023432Y007774D03*
X024868Y006612D03*
X026351Y006548D03*
X026044Y007764D03*
X017710Y009410D03*
D14*
X000830Y000830D02*
X000830Y021170D01*
X025750Y021170D01*
X026170Y020750D01*
X026170Y018000D01*
X030170Y014000D01*
X030170Y010750D01*
X027500Y010750D01*
X027500Y006250D01*
X030170Y006250D01*
X030170Y003250D01*
X027750Y000830D01*
X000830Y000830D01*
X000830Y000976D02*
X011275Y000976D01*
X011280Y000970D02*
X011720Y000970D01*
X012000Y001250D01*
X012280Y000970D01*
X012720Y000970D01*
X013000Y001250D01*
X013280Y000970D01*
X013720Y000970D01*
X014000Y001250D01*
X014280Y000970D01*
X014720Y000970D01*
X015000Y001250D01*
X015280Y000970D01*
X015720Y000970D01*
X016014Y001265D01*
X016289Y000990D01*
X016482Y000990D01*
X016482Y001482D01*
X016518Y001482D01*
X016518Y000990D01*
X016711Y000990D01*
X017000Y001279D01*
X017289Y000990D01*
X017482Y000990D01*
X017482Y001482D01*
X017518Y001482D01*
X017518Y000990D01*
X017711Y000990D01*
X017986Y001265D01*
X018280Y000970D01*
X018720Y000970D01*
X019030Y001280D01*
X019030Y001720D01*
X018720Y002030D01*
X018280Y002030D01*
X017986Y001735D01*
X017711Y002010D01*
X017518Y002010D01*
X017518Y001518D01*
X017482Y001518D01*
X017482Y002010D01*
X017289Y002010D01*
X017000Y001721D01*
X016711Y002010D01*
X016518Y002010D01*
X016518Y001518D01*
X016482Y001518D01*
X016482Y002010D01*
X016289Y002010D01*
X016014Y001735D01*
X015720Y002030D01*
X015280Y002030D01*
X015000Y001750D01*
X014720Y002030D01*
X014280Y002030D01*
X014000Y001750D01*
X013720Y002030D01*
X013280Y002030D01*
X013000Y001750D01*
X012720Y002030D01*
X012280Y002030D01*
X012000Y001750D01*
X011720Y002030D01*
X011280Y002030D01*
X010970Y001720D01*
X010970Y001280D01*
X011280Y000970D01*
X011116Y001134D02*
X000830Y001134D01*
X000830Y001293D02*
X010970Y001293D01*
X010970Y001451D02*
X000830Y001451D01*
X000830Y001610D02*
X010970Y001610D01*
X011018Y001768D02*
X000830Y001768D01*
X000830Y001927D02*
X011177Y001927D01*
X011823Y001927D02*
X012177Y001927D01*
X012018Y001768D02*
X011982Y001768D01*
X011884Y001134D02*
X012116Y001134D01*
X012275Y000976D02*
X011725Y000976D01*
X012725Y000976D02*
X013275Y000976D01*
X013116Y001134D02*
X012884Y001134D01*
X012982Y001768D02*
X013018Y001768D01*
X013177Y001927D02*
X012823Y001927D01*
X013823Y001927D02*
X014177Y001927D01*
X014018Y001768D02*
X013982Y001768D01*
X013884Y001134D02*
X014116Y001134D01*
X014275Y000976D02*
X013725Y000976D01*
X014725Y000976D02*
X015275Y000976D01*
X015116Y001134D02*
X014884Y001134D01*
X014982Y001768D02*
X015018Y001768D01*
X015177Y001927D02*
X014823Y001927D01*
X015823Y001927D02*
X016205Y001927D01*
X016047Y001768D02*
X015982Y001768D01*
X016482Y001768D02*
X016518Y001768D01*
X016518Y001610D02*
X016482Y001610D01*
X016518Y001518D02*
X017010Y001518D01*
X017482Y001518D01*
X017482Y001482D01*
X016518Y001482D01*
X016518Y001518D01*
X016518Y001451D02*
X016482Y001451D01*
X016482Y001293D02*
X016518Y001293D01*
X016518Y001134D02*
X016482Y001134D01*
X016145Y001134D02*
X015884Y001134D01*
X015725Y000976D02*
X018275Y000976D01*
X018116Y001134D02*
X017855Y001134D01*
X017518Y001134D02*
X017482Y001134D01*
X017482Y001293D02*
X017518Y001293D01*
X017518Y001451D02*
X017482Y001451D01*
X017482Y001610D02*
X017518Y001610D01*
X017518Y001768D02*
X017482Y001768D01*
X017482Y001927D02*
X017518Y001927D01*
X017795Y001927D02*
X018177Y001927D01*
X018018Y001768D02*
X017953Y001768D01*
X017205Y001927D02*
X016795Y001927D01*
X016953Y001768D02*
X017047Y001768D01*
X016518Y001927D02*
X016482Y001927D01*
X016855Y001134D02*
X017145Y001134D01*
X018725Y000976D02*
X020275Y000976D01*
X020280Y000970D02*
X020720Y000970D01*
X021000Y001250D01*
X021280Y000970D01*
X021720Y000970D01*
X022000Y001250D01*
X022280Y000970D01*
X022720Y000970D01*
X023000Y001250D01*
X023280Y000970D01*
X023720Y000970D01*
X024000Y001250D01*
X024280Y000970D01*
X024720Y000970D01*
X025000Y001250D01*
X025280Y000970D01*
X025720Y000970D01*
X026030Y001280D01*
X026030Y001720D01*
X025720Y002030D01*
X025280Y002030D01*
X025000Y001750D01*
X024720Y002030D01*
X024280Y002030D01*
X024000Y001750D01*
X023720Y002030D01*
X023280Y002030D01*
X023000Y001750D01*
X022720Y002030D01*
X022280Y002030D01*
X022000Y001750D01*
X021720Y002030D01*
X021280Y002030D01*
X021000Y001750D01*
X020720Y002030D01*
X020280Y002030D01*
X019970Y001720D01*
X019970Y001280D01*
X020280Y000970D01*
X020116Y001134D02*
X018884Y001134D01*
X019030Y001293D02*
X019970Y001293D01*
X019970Y001451D02*
X019030Y001451D01*
X019030Y001610D02*
X019970Y001610D01*
X020018Y001768D02*
X018982Y001768D01*
X018823Y001927D02*
X020177Y001927D01*
X020823Y001927D02*
X021177Y001927D01*
X021018Y001768D02*
X020982Y001768D01*
X021823Y001927D02*
X022177Y001927D01*
X022018Y001768D02*
X021982Y001768D01*
X021884Y001134D02*
X022116Y001134D01*
X022275Y000976D02*
X021725Y000976D01*
X021275Y000976D02*
X020725Y000976D01*
X020884Y001134D02*
X021116Y001134D01*
X022725Y000976D02*
X023275Y000976D01*
X023116Y001134D02*
X022884Y001134D01*
X022982Y001768D02*
X023018Y001768D01*
X023177Y001927D02*
X022823Y001927D01*
X023823Y001927D02*
X024177Y001927D01*
X024018Y001768D02*
X023982Y001768D01*
X024823Y001927D02*
X025177Y001927D01*
X025018Y001768D02*
X024982Y001768D01*
X024884Y001134D02*
X025116Y001134D01*
X025275Y000976D02*
X024725Y000976D01*
X024275Y000976D02*
X023725Y000976D01*
X023884Y001134D02*
X024116Y001134D01*
X025725Y000976D02*
X027896Y000976D01*
X028054Y001134D02*
X025884Y001134D01*
X026030Y001293D02*
X028213Y001293D01*
X028371Y001451D02*
X026030Y001451D01*
X026030Y001610D02*
X028530Y001610D01*
X028688Y001768D02*
X025982Y001768D01*
X025823Y001927D02*
X028847Y001927D01*
X029005Y002085D02*
X000830Y002085D01*
X000830Y002244D02*
X029164Y002244D01*
X029322Y002402D02*
X000830Y002402D01*
X000830Y002561D02*
X029481Y002561D01*
X029639Y002719D02*
X000830Y002719D01*
X000830Y002878D02*
X029798Y002878D01*
X029956Y003036D02*
X000830Y003036D01*
X000830Y003195D02*
X030115Y003195D01*
X030170Y003353D02*
X000830Y003353D01*
X000830Y003512D02*
X030170Y003512D01*
X030170Y003670D02*
X000830Y003670D01*
X000830Y003829D02*
X030170Y003829D01*
X030170Y003987D02*
X000830Y003987D01*
X000830Y004146D02*
X030170Y004146D01*
X030170Y004304D02*
X000830Y004304D01*
X000830Y004463D02*
X030170Y004463D01*
X030170Y004621D02*
X000830Y004621D01*
X000830Y004780D02*
X030170Y004780D01*
X030170Y004938D02*
X000830Y004938D01*
X000830Y005097D02*
X030170Y005097D01*
X030170Y005255D02*
X000830Y005255D01*
X000830Y005414D02*
X030170Y005414D01*
X030170Y005572D02*
X000830Y005572D01*
X000830Y005731D02*
X030170Y005731D01*
X030170Y005889D02*
X000830Y005889D01*
X000830Y006048D02*
X030170Y006048D01*
X030170Y006206D02*
X000830Y006206D01*
X000830Y006365D02*
X027500Y006365D01*
X027500Y006523D02*
X000830Y006523D01*
X000830Y006682D02*
X027500Y006682D01*
X027500Y006840D02*
X000830Y006840D01*
X000830Y006999D02*
X027500Y006999D01*
X027500Y007157D02*
X000830Y007157D01*
X000830Y007316D02*
X027500Y007316D01*
X027500Y007474D02*
X000830Y007474D01*
X000830Y007633D02*
X027500Y007633D01*
X027500Y007791D02*
X000830Y007791D01*
X000830Y007950D02*
X012288Y007950D01*
X012259Y007979D02*
X012359Y007879D01*
X012489Y007825D01*
X012630Y007825D01*
X012761Y007879D01*
X012861Y007979D01*
X012915Y008110D01*
X012915Y008251D01*
X012861Y008381D01*
X012761Y008481D01*
X012630Y008535D01*
X012581Y008535D01*
X012210Y008906D01*
X012210Y011854D01*
X014801Y014445D01*
X014831Y014445D01*
X014961Y014499D01*
X015061Y014599D01*
X015115Y014729D01*
X015115Y014871D01*
X015061Y015001D01*
X014961Y015101D01*
X014831Y015155D01*
X014689Y015155D01*
X014559Y015101D01*
X014459Y015001D01*
X014405Y014871D01*
X014405Y014841D01*
X011771Y012207D01*
X011693Y012129D01*
X011650Y012026D01*
X011650Y008734D01*
X011693Y008631D01*
X011771Y008553D01*
X012205Y008119D01*
X012205Y008110D01*
X012259Y007979D01*
X012205Y008108D02*
X000830Y008108D01*
X000830Y008267D02*
X012058Y008267D01*
X011899Y008425D02*
X000830Y008425D01*
X000830Y008584D02*
X011741Y008584D01*
X011650Y008742D02*
X000830Y008742D01*
X000830Y008901D02*
X011650Y008901D01*
X011650Y009059D02*
X000830Y009059D01*
X000830Y009218D02*
X011650Y009218D01*
X011650Y009376D02*
X000830Y009376D01*
X000830Y009535D02*
X011650Y009535D01*
X011650Y009693D02*
X000830Y009693D01*
X000830Y009852D02*
X011650Y009852D01*
X011650Y010010D02*
X000830Y010010D01*
X000830Y010169D02*
X011650Y010169D01*
X011650Y010327D02*
X000830Y010327D01*
X000830Y010486D02*
X011650Y010486D01*
X011650Y010644D02*
X000830Y010644D01*
X000830Y010803D02*
X011650Y010803D01*
X011650Y010961D02*
X000830Y010961D01*
X000830Y011120D02*
X011650Y011120D01*
X011650Y011278D02*
X000830Y011278D01*
X000830Y011437D02*
X011650Y011437D01*
X011650Y011595D02*
X000830Y011595D01*
X000830Y011754D02*
X011650Y011754D01*
X011650Y011912D02*
X000830Y011912D01*
X000830Y012071D02*
X011669Y012071D01*
X011793Y012229D02*
X000830Y012229D01*
X000830Y012388D02*
X011952Y012388D01*
X012110Y012546D02*
X000830Y012546D01*
X000830Y012705D02*
X012269Y012705D01*
X012427Y012863D02*
X000830Y012863D01*
X000830Y013022D02*
X012586Y013022D01*
X012744Y013180D02*
X000830Y013180D01*
X000830Y013339D02*
X012903Y013339D01*
X013061Y013497D02*
X000830Y013497D01*
X000830Y013656D02*
X013220Y013656D01*
X013378Y013814D02*
X000830Y013814D01*
X000830Y013973D02*
X013537Y013973D01*
X013695Y014131D02*
X000830Y014131D01*
X000830Y014290D02*
X013854Y014290D01*
X014012Y014448D02*
X000830Y014448D01*
X000830Y014607D02*
X014171Y014607D01*
X014329Y014765D02*
X000830Y014765D01*
X000830Y014924D02*
X014427Y014924D01*
X014540Y015082D02*
X000830Y015082D01*
X000830Y015241D02*
X028929Y015241D01*
X028771Y015399D02*
X000830Y015399D01*
X000830Y015558D02*
X028612Y015558D01*
X028454Y015716D02*
X000830Y015716D01*
X000830Y015875D02*
X003443Y015875D01*
X003430Y015887D02*
X003547Y015770D01*
X006033Y015770D01*
X006150Y015887D01*
X006150Y017973D01*
X006033Y018090D01*
X003547Y018090D01*
X003430Y017973D01*
X003430Y015887D01*
X003430Y016033D02*
X000830Y016033D01*
X000830Y016192D02*
X003430Y016192D01*
X003430Y016350D02*
X000830Y016350D01*
X000830Y016509D02*
X003430Y016509D01*
X003430Y016667D02*
X000830Y016667D01*
X000830Y016826D02*
X003430Y016826D01*
X003430Y016984D02*
X000830Y016984D01*
X000830Y017143D02*
X003430Y017143D01*
X003430Y017301D02*
X000830Y017301D01*
X000830Y017460D02*
X003430Y017460D01*
X003430Y017618D02*
X000830Y017618D01*
X000830Y017777D02*
X003430Y017777D01*
X003430Y017935D02*
X000830Y017935D01*
X000830Y018094D02*
X014640Y018094D01*
X014640Y018252D02*
X000830Y018252D01*
X000830Y018411D02*
X014640Y018411D01*
X014640Y018569D02*
X000830Y018569D01*
X000830Y018728D02*
X014640Y018728D01*
X014640Y018886D02*
X000830Y018886D01*
X000830Y019045D02*
X014640Y019045D01*
X014640Y019203D02*
X000830Y019203D01*
X000830Y019362D02*
X014640Y019362D01*
X014640Y019520D02*
X000830Y019520D01*
X000830Y019679D02*
X014640Y019679D01*
X014640Y019837D02*
X000830Y019837D01*
X000830Y019996D02*
X007655Y019996D01*
X007680Y019970D02*
X008120Y019970D01*
X008400Y020250D01*
X008680Y019970D01*
X009120Y019970D01*
X009400Y020250D01*
X009680Y019970D01*
X010120Y019970D01*
X010414Y020265D01*
X010689Y019990D01*
X010882Y019990D01*
X010882Y020482D01*
X010918Y020482D01*
X010918Y019990D01*
X011111Y019990D01*
X011386Y020265D01*
X011680Y019970D01*
X012120Y019970D01*
X012400Y020250D01*
X012680Y019970D01*
X013120Y019970D01*
X013400Y020250D01*
X013680Y019970D01*
X014120Y019970D01*
X014400Y020250D01*
X014640Y020010D01*
X014640Y017812D01*
X014599Y017771D01*
X014545Y017641D01*
X014545Y017499D01*
X014599Y017369D01*
X014699Y017269D01*
X014829Y017215D01*
X014971Y017215D01*
X015101Y017269D01*
X015201Y017369D01*
X015255Y017499D01*
X015255Y017641D01*
X015201Y017771D01*
X015160Y017812D01*
X015160Y020010D01*
X015400Y020250D01*
X015640Y020010D01*
X015640Y017948D01*
X015680Y017853D01*
X015753Y017780D01*
X015803Y017729D01*
X015803Y017671D01*
X015857Y017541D01*
X015957Y017441D01*
X016087Y017387D01*
X016229Y017387D01*
X016359Y017441D01*
X016459Y017541D01*
X016513Y017671D01*
X016513Y017813D01*
X016459Y017943D01*
X016359Y018043D01*
X016229Y018097D01*
X016171Y018097D01*
X016160Y018108D01*
X016160Y020010D01*
X016400Y020250D01*
X016640Y020010D01*
X016640Y018102D01*
X016599Y018061D01*
X016545Y017931D01*
X016545Y017789D01*
X016599Y017659D01*
X016699Y017559D01*
X016829Y017505D01*
X016971Y017505D01*
X017101Y017559D01*
X017201Y017659D01*
X017255Y017789D01*
X017255Y017931D01*
X017201Y018061D01*
X017160Y018102D01*
X017160Y020010D01*
X017430Y020280D01*
X017430Y020720D01*
X017120Y021030D01*
X016680Y021030D01*
X016400Y020750D01*
X016120Y021030D01*
X015680Y021030D01*
X015400Y020750D01*
X015120Y021030D01*
X014680Y021030D01*
X014400Y020750D01*
X014120Y021030D01*
X013680Y021030D01*
X013400Y020750D01*
X013120Y021030D01*
X012680Y021030D01*
X012400Y020750D01*
X012120Y021030D01*
X011680Y021030D01*
X011386Y020735D01*
X011111Y021010D01*
X010918Y021010D01*
X010918Y020518D01*
X010882Y020518D01*
X010882Y021010D01*
X010689Y021010D01*
X010414Y020735D01*
X010120Y021030D01*
X009680Y021030D01*
X009400Y020750D01*
X009120Y021030D01*
X008680Y021030D01*
X008400Y020750D01*
X008120Y021030D01*
X007680Y021030D01*
X007370Y020720D01*
X007370Y020280D01*
X007680Y019970D01*
X007496Y020154D02*
X000830Y020154D01*
X000830Y020313D02*
X007370Y020313D01*
X007370Y020471D02*
X000830Y020471D01*
X000830Y020630D02*
X007370Y020630D01*
X007438Y020788D02*
X000830Y020788D01*
X000830Y020947D02*
X007597Y020947D01*
X008203Y020947D02*
X008597Y020947D01*
X008439Y020788D02*
X008361Y020788D01*
X009203Y020947D02*
X009597Y020947D01*
X009439Y020788D02*
X009361Y020788D01*
X009304Y020154D02*
X009496Y020154D01*
X009655Y019996D02*
X009145Y019996D01*
X008655Y019996D02*
X008145Y019996D01*
X008304Y020154D02*
X008496Y020154D01*
X010145Y019996D02*
X010683Y019996D01*
X010882Y019996D02*
X010918Y019996D01*
X010918Y020154D02*
X010882Y020154D01*
X010882Y020313D02*
X010918Y020313D01*
X010918Y020471D02*
X010882Y020471D01*
X010882Y020482D02*
X010430Y020482D01*
X010430Y020518D01*
X010882Y020518D01*
X010882Y020482D01*
X010918Y020482D02*
X010918Y020518D01*
X011370Y020518D01*
X011370Y020482D01*
X010918Y020482D01*
X010918Y020630D02*
X010882Y020630D01*
X010882Y020788D02*
X010918Y020788D01*
X010918Y020947D02*
X010882Y020947D01*
X010625Y020947D02*
X010203Y020947D01*
X010361Y020788D02*
X010467Y020788D01*
X011175Y020947D02*
X011597Y020947D01*
X011438Y020788D02*
X011333Y020788D01*
X011275Y020154D02*
X011496Y020154D01*
X011655Y019996D02*
X011117Y019996D01*
X010525Y020154D02*
X010304Y020154D01*
X012145Y019996D02*
X012655Y019996D01*
X012496Y020154D02*
X012304Y020154D01*
X013145Y019996D02*
X013655Y019996D01*
X013496Y020154D02*
X013304Y020154D01*
X013361Y020788D02*
X013439Y020788D01*
X013597Y020947D02*
X013203Y020947D01*
X012597Y020947D02*
X012203Y020947D01*
X012361Y020788D02*
X012439Y020788D01*
X014203Y020947D02*
X014597Y020947D01*
X014439Y020788D02*
X014361Y020788D01*
X014304Y020154D02*
X014496Y020154D01*
X014640Y019996D02*
X014145Y019996D01*
X015160Y019996D02*
X015640Y019996D01*
X015640Y019837D02*
X015160Y019837D01*
X015160Y019679D02*
X015640Y019679D01*
X015640Y019520D02*
X015160Y019520D01*
X015160Y019362D02*
X015640Y019362D01*
X015640Y019203D02*
X015160Y019203D01*
X015160Y019045D02*
X015640Y019045D01*
X015640Y018886D02*
X015160Y018886D01*
X015160Y018728D02*
X015640Y018728D01*
X015640Y018569D02*
X015160Y018569D01*
X015160Y018411D02*
X015640Y018411D01*
X015640Y018252D02*
X015160Y018252D01*
X015160Y018094D02*
X015640Y018094D01*
X015645Y017935D02*
X015160Y017935D01*
X015196Y017777D02*
X015756Y017777D01*
X015753Y017780D02*
X015753Y017780D01*
X015825Y017618D02*
X015255Y017618D01*
X015238Y017460D02*
X015938Y017460D01*
X016377Y017460D02*
X026710Y017460D01*
X026552Y017618D02*
X017160Y017618D01*
X017250Y017777D02*
X026393Y017777D01*
X026235Y017935D02*
X017253Y017935D01*
X017169Y018094D02*
X026170Y018094D01*
X026170Y018252D02*
X019660Y018252D01*
X019701Y018269D02*
X019571Y018215D01*
X019429Y018215D01*
X019299Y018269D01*
X019199Y018369D01*
X019145Y018499D01*
X019145Y018641D01*
X019199Y018771D01*
X019220Y018792D01*
X019220Y020030D01*
X019000Y020250D01*
X018770Y020020D01*
X018770Y018822D01*
X018791Y018801D01*
X018845Y018671D01*
X018845Y018529D01*
X018791Y018399D01*
X018691Y018299D01*
X018561Y018245D01*
X018419Y018245D01*
X018289Y018299D01*
X018189Y018399D01*
X018135Y018529D01*
X018135Y018671D01*
X018189Y018801D01*
X018210Y018822D01*
X018210Y020040D01*
X017970Y020280D01*
X017970Y020720D01*
X018280Y021030D01*
X018720Y021030D01*
X019000Y020750D01*
X019280Y021030D01*
X019720Y021030D01*
X020000Y020750D01*
X020280Y021030D01*
X020720Y021030D01*
X021000Y020750D01*
X021280Y021030D01*
X021720Y021030D01*
X022000Y020750D01*
X022280Y021030D01*
X022720Y021030D01*
X023000Y020750D01*
X023280Y021030D01*
X023720Y021030D01*
X024000Y020750D01*
X024280Y021030D01*
X024720Y021030D01*
X025000Y020750D01*
X025280Y021030D01*
X025720Y021030D01*
X026030Y020720D01*
X026030Y020280D01*
X025720Y019970D01*
X025280Y019970D01*
X025000Y020250D01*
X024720Y019970D01*
X024280Y019970D01*
X024000Y020250D01*
X023720Y019970D01*
X023280Y019970D01*
X023000Y020250D01*
X022720Y019970D01*
X022280Y019970D01*
X022000Y020250D01*
X021720Y019970D01*
X021280Y019970D01*
X021000Y020250D01*
X020720Y019970D01*
X020280Y019970D01*
X020000Y020250D01*
X019780Y020030D01*
X019780Y018792D01*
X019801Y018771D01*
X019855Y018641D01*
X019855Y018499D01*
X019801Y018369D01*
X019701Y018269D01*
X019818Y018411D02*
X026170Y018411D01*
X026170Y018569D02*
X019855Y018569D01*
X019819Y018728D02*
X026170Y018728D01*
X026170Y018886D02*
X019780Y018886D01*
X019780Y019045D02*
X026170Y019045D01*
X026170Y019203D02*
X019780Y019203D01*
X019780Y019362D02*
X026170Y019362D01*
X026170Y019520D02*
X019780Y019520D01*
X019780Y019679D02*
X026170Y019679D01*
X026170Y019837D02*
X019780Y019837D01*
X019780Y019996D02*
X020255Y019996D01*
X020096Y020154D02*
X019904Y020154D01*
X019500Y020500D02*
X019500Y018570D01*
X019145Y018569D02*
X018845Y018569D01*
X018821Y018728D02*
X019181Y018728D01*
X019220Y018886D02*
X018770Y018886D01*
X018770Y019045D02*
X019220Y019045D01*
X019220Y019203D02*
X018770Y019203D01*
X018770Y019362D02*
X019220Y019362D01*
X019220Y019520D02*
X018770Y019520D01*
X018770Y019679D02*
X019220Y019679D01*
X019220Y019837D02*
X018770Y019837D01*
X018770Y019996D02*
X019220Y019996D01*
X019096Y020154D02*
X018904Y020154D01*
X018500Y020500D02*
X018490Y020500D01*
X018490Y018600D01*
X018159Y018728D02*
X017160Y018728D01*
X017160Y018886D02*
X018210Y018886D01*
X018210Y019045D02*
X017160Y019045D01*
X017160Y019203D02*
X018210Y019203D01*
X018210Y019362D02*
X017160Y019362D01*
X017160Y019520D02*
X018210Y019520D01*
X018210Y019679D02*
X017160Y019679D01*
X017160Y019837D02*
X018210Y019837D01*
X018210Y019996D02*
X017160Y019996D01*
X017304Y020154D02*
X018096Y020154D01*
X017970Y020313D02*
X017430Y020313D01*
X017430Y020471D02*
X017970Y020471D01*
X017970Y020630D02*
X017430Y020630D01*
X017361Y020788D02*
X018038Y020788D01*
X018197Y020947D02*
X017203Y020947D01*
X016597Y020947D02*
X016203Y020947D01*
X016361Y020788D02*
X016439Y020788D01*
X016496Y020154D02*
X016304Y020154D01*
X016160Y019996D02*
X016640Y019996D01*
X016640Y019837D02*
X016160Y019837D01*
X016160Y019679D02*
X016640Y019679D01*
X016640Y019520D02*
X016160Y019520D01*
X016160Y019362D02*
X016640Y019362D01*
X016640Y019203D02*
X016160Y019203D01*
X016160Y019045D02*
X016640Y019045D01*
X016640Y018886D02*
X016160Y018886D01*
X016160Y018728D02*
X016640Y018728D01*
X016640Y018569D02*
X016160Y018569D01*
X016160Y018411D02*
X016640Y018411D01*
X016640Y018252D02*
X016160Y018252D01*
X016237Y018094D02*
X016631Y018094D01*
X016547Y017935D02*
X016462Y017935D01*
X016513Y017777D02*
X016550Y017777D01*
X016491Y017618D02*
X016640Y017618D01*
X017160Y018252D02*
X018402Y018252D01*
X018578Y018252D02*
X019340Y018252D01*
X019182Y018411D02*
X018796Y018411D01*
X018184Y018411D02*
X017160Y018411D01*
X017160Y018569D02*
X018135Y018569D01*
X015496Y020154D02*
X015304Y020154D01*
X015361Y020788D02*
X015439Y020788D01*
X015597Y020947D02*
X015203Y020947D01*
X018803Y020947D02*
X019197Y020947D01*
X019039Y020788D02*
X018961Y020788D01*
X019803Y020947D02*
X020197Y020947D01*
X020039Y020788D02*
X019961Y020788D01*
X020803Y020947D02*
X021197Y020947D01*
X021039Y020788D02*
X020961Y020788D01*
X021803Y020947D02*
X022197Y020947D01*
X022038Y020788D02*
X021961Y020788D01*
X021904Y020154D02*
X022096Y020154D01*
X022255Y019996D02*
X021745Y019996D01*
X021255Y019996D02*
X020745Y019996D01*
X020904Y020154D02*
X021096Y020154D01*
X022745Y019996D02*
X023255Y019996D01*
X023096Y020154D02*
X022904Y020154D01*
X022961Y020788D02*
X023038Y020788D01*
X023197Y020947D02*
X022803Y020947D01*
X023803Y020947D02*
X024197Y020947D01*
X024038Y020788D02*
X023961Y020788D01*
X023904Y020154D02*
X024096Y020154D01*
X024255Y019996D02*
X023745Y019996D01*
X024745Y019996D02*
X025255Y019996D01*
X025096Y020154D02*
X024904Y020154D01*
X025745Y019996D02*
X026170Y019996D01*
X026170Y020154D02*
X025904Y020154D01*
X026030Y020313D02*
X026170Y020313D01*
X026170Y020471D02*
X026030Y020471D01*
X026030Y020630D02*
X026170Y020630D01*
X026132Y020788D02*
X025961Y020788D01*
X025973Y020947D02*
X025803Y020947D01*
X025815Y021105D02*
X000830Y021105D01*
X006150Y017935D02*
X014640Y017935D01*
X014604Y017777D02*
X006150Y017777D01*
X006150Y017618D02*
X014545Y017618D01*
X014562Y017460D02*
X006150Y017460D01*
X006150Y017301D02*
X014667Y017301D01*
X015133Y017301D02*
X026869Y017301D01*
X027027Y017143D02*
X006150Y017143D01*
X006150Y016984D02*
X027186Y016984D01*
X027344Y016826D02*
X006150Y016826D01*
X006150Y016667D02*
X027503Y016667D01*
X027661Y016509D02*
X006150Y016509D01*
X006150Y016350D02*
X027820Y016350D01*
X027978Y016192D02*
X006150Y016192D01*
X006150Y016033D02*
X028137Y016033D01*
X028295Y015875D02*
X006137Y015875D01*
X011930Y011970D02*
X011930Y008790D01*
X012540Y008180D01*
X012560Y008180D01*
X012817Y008425D02*
X027500Y008425D01*
X027500Y008267D02*
X012908Y008267D01*
X012914Y008108D02*
X027500Y008108D01*
X027500Y007950D02*
X012831Y007950D01*
X012532Y008584D02*
X027500Y008584D01*
X027500Y008742D02*
X012374Y008742D01*
X012215Y008901D02*
X027500Y008901D01*
X027500Y009059D02*
X012210Y009059D01*
X012210Y009218D02*
X027500Y009218D01*
X027500Y009376D02*
X012210Y009376D01*
X012210Y009535D02*
X027500Y009535D01*
X027500Y009693D02*
X012210Y009693D01*
X012210Y009852D02*
X027500Y009852D01*
X027500Y010010D02*
X025767Y010010D01*
X025757Y010000D02*
X026050Y010293D01*
X026050Y010707D01*
X025757Y011000D01*
X025343Y011000D01*
X025050Y010707D01*
X025050Y010293D01*
X025343Y010000D01*
X025757Y010000D01*
X025926Y010169D02*
X026203Y010169D01*
X026070Y010301D02*
X026070Y010480D01*
X026530Y010480D01*
X026530Y010520D01*
X026530Y010980D01*
X026351Y010980D01*
X026070Y010699D01*
X026070Y010520D01*
X026530Y010520D01*
X026570Y010520D01*
X026570Y010980D01*
X026749Y010980D01*
X027030Y010699D01*
X027030Y010520D01*
X026570Y010520D01*
X026570Y010480D01*
X027030Y010480D01*
X027030Y010301D01*
X026749Y010020D01*
X026570Y010020D01*
X026570Y010480D01*
X026530Y010480D01*
X026530Y010020D01*
X026351Y010020D01*
X026070Y010301D01*
X026070Y010327D02*
X026050Y010327D01*
X026050Y010486D02*
X026530Y010486D01*
X026570Y010486D02*
X027500Y010486D01*
X027500Y010644D02*
X027030Y010644D01*
X026926Y010803D02*
X030170Y010803D01*
X030170Y010961D02*
X026768Y010961D01*
X026757Y011000D02*
X027050Y011293D01*
X027050Y011707D01*
X026757Y012000D01*
X026343Y012000D01*
X026050Y011707D01*
X026050Y011293D01*
X026343Y011000D01*
X026757Y011000D01*
X026877Y011120D02*
X030170Y011120D01*
X030170Y011278D02*
X027035Y011278D01*
X027050Y011437D02*
X030170Y011437D01*
X030170Y011595D02*
X027050Y011595D01*
X027004Y011754D02*
X030170Y011754D01*
X030170Y011912D02*
X026845Y011912D01*
X026757Y012000D02*
X027050Y012293D01*
X027050Y012707D01*
X026757Y013000D01*
X026343Y013000D01*
X026050Y012707D01*
X026050Y012293D01*
X026343Y012000D01*
X026757Y012000D01*
X026828Y012071D02*
X030170Y012071D01*
X030170Y012229D02*
X026986Y012229D01*
X027050Y012388D02*
X030170Y012388D01*
X030170Y012546D02*
X027050Y012546D01*
X027050Y012705D02*
X030170Y012705D01*
X030170Y012863D02*
X026894Y012863D01*
X026206Y012863D02*
X025894Y012863D01*
X025757Y013000D02*
X025343Y013000D01*
X025050Y012707D01*
X025050Y012293D01*
X025343Y012000D01*
X025050Y011707D01*
X025050Y011293D01*
X025343Y011000D01*
X025757Y011000D01*
X026050Y011293D01*
X026050Y011707D01*
X025757Y012000D01*
X025343Y012000D01*
X025757Y012000D01*
X026050Y012293D01*
X026050Y012707D01*
X025757Y013000D01*
X026050Y012705D02*
X026050Y012705D01*
X026050Y012546D02*
X026050Y012546D01*
X026050Y012388D02*
X026050Y012388D01*
X025986Y012229D02*
X026114Y012229D01*
X026272Y012071D02*
X025828Y012071D01*
X025845Y011912D02*
X026255Y011912D01*
X026096Y011754D02*
X026004Y011754D01*
X026050Y011595D02*
X026050Y011595D01*
X026050Y011437D02*
X026050Y011437D01*
X026035Y011278D02*
X026065Y011278D01*
X026223Y011120D02*
X025877Y011120D01*
X025796Y010961D02*
X026332Y010961D01*
X026530Y010961D02*
X026570Y010961D01*
X026570Y010803D02*
X026530Y010803D01*
X026530Y010644D02*
X026570Y010644D01*
X026174Y010803D02*
X025955Y010803D01*
X026050Y010644D02*
X026070Y010644D01*
X026530Y010327D02*
X026570Y010327D01*
X026570Y010169D02*
X026530Y010169D01*
X026897Y010169D02*
X027500Y010169D01*
X027500Y010327D02*
X027030Y010327D01*
X025333Y010010D02*
X012210Y010010D01*
X012210Y010169D02*
X025174Y010169D01*
X025050Y010327D02*
X012210Y010327D01*
X012210Y010486D02*
X025050Y010486D01*
X025050Y010644D02*
X012210Y010644D01*
X012210Y010803D02*
X025145Y010803D01*
X025304Y010961D02*
X012210Y010961D01*
X012210Y011120D02*
X025223Y011120D01*
X025065Y011278D02*
X012210Y011278D01*
X012210Y011437D02*
X025050Y011437D01*
X025050Y011595D02*
X012210Y011595D01*
X012210Y011754D02*
X025096Y011754D01*
X025255Y011912D02*
X012268Y011912D01*
X012426Y012071D02*
X025272Y012071D01*
X025114Y012229D02*
X012585Y012229D01*
X012743Y012388D02*
X025050Y012388D01*
X025050Y012546D02*
X012902Y012546D01*
X013060Y012705D02*
X025050Y012705D01*
X025206Y012863D02*
X013219Y012863D01*
X013377Y013022D02*
X030170Y013022D01*
X030170Y013180D02*
X013536Y013180D01*
X013694Y013339D02*
X030170Y013339D01*
X030170Y013497D02*
X013853Y013497D01*
X014011Y013656D02*
X030170Y013656D01*
X030170Y013814D02*
X014170Y013814D01*
X014329Y013973D02*
X030170Y013973D01*
X030039Y014131D02*
X014487Y014131D01*
X014646Y014290D02*
X029880Y014290D01*
X029722Y014448D02*
X014838Y014448D01*
X015064Y014607D02*
X029563Y014607D01*
X029405Y014765D02*
X015115Y014765D01*
X015093Y014924D02*
X029246Y014924D01*
X029088Y015082D02*
X014980Y015082D01*
X014760Y014800D02*
X011930Y011970D01*
X012620Y011840D02*
X012610Y011770D01*
X020210Y015800D02*
X020220Y015790D01*
X020270Y015790D01*
X022290Y017570D02*
X022300Y017560D01*
X024961Y020788D02*
X025038Y020788D01*
X025197Y020947D02*
X024803Y020947D01*
X012340Y017110D02*
X012340Y017100D01*
D15*
X014900Y017570D02*
X014900Y020500D01*
X015900Y020500D02*
X015900Y018000D01*
X016158Y017742D01*
X016900Y017860D02*
X016900Y020500D01*
X017170Y017100D02*
X017200Y017100D01*
D16*
X014390Y012690D02*
X014380Y012590D01*
X018910Y011600D02*
X018930Y011620D01*
D17*
X026500Y014500D03*
X026500Y003500D03*
X006000Y001500D03*
X006500Y020500D03*
M02*
